<?xml version="1.0" encoding="UTF-8"?>
<svg version="1.1" xmlns="http://www.w3.org/2000/svg" width="523" height="178">
<path d="M0 0 C1.78632239 0.88450879 3.57265363 1.76900088 5.35975647 2.65193176 C6.57237435 3.25212234 7.78407467 3.85417024 8.99485779 4.45805359 C15.95433461 7.92868021 22.99502622 11.22727985 30.03955078 14.52099609 C40.93408305 19.68408305 40.93408305 19.68408305 44.375 23.125 C44.65558489 27.07614545 44.60681436 31.04007723 44.625 35 C44.645625 36.11503906 44.66625 37.23007812 44.6875 38.37890625 C44.69523437 39.98185547 44.69523437 39.98185547 44.703125 41.6171875 C44.7124707 42.60058105 44.72181641 43.58397461 44.73144531 44.59716797 C44.31459857 47.5533537 43.70799906 48.33894885 41.375 50.125 C39.72894174 51.15857147 38.06536558 52.16560332 36.375 53.125 C36.94307373 53.41745605 37.51114746 53.70991211 38.09643555 54.01123047 C41.61670811 56.15387089 43.98619024 57.71790337 45.11572266 61.80566406 C45.34396344 64.98660895 45.31914008 68.0639284 45.1875 71.25 C45.19330078 72.33410156 45.19910156 73.41820313 45.20507812 74.53515625 C45.05492804 82.37202184 45.05492804 82.37202184 42.01171875 85.7421875 C40.70654297 86.42667969 40.70654297 86.42667969 39.375 87.125 C38.385 87.785 37.395 88.445 36.375 89.125 C36.94089844 89.36992188 37.50679688 89.61484375 38.08984375 89.8671875 C43.92136801 92.83931761 43.92136801 92.83931761 45.12890625 96.26171875 C45.39731247 98.90743722 45.41907116 101.46603988 45.375 104.125 C45.42140625 105.16140625 45.4678125 106.1978125 45.515625 107.265625 C45.71145624 112.94473097 45.81187252 116.41014216 42.375 121.125 C39.64550781 122.95507812 39.64550781 122.95507812 36.328125 124.65625 C35.72828796 124.96935623 35.12845093 125.28246246 34.51043701 125.60505676 C33.22285578 126.27552127 31.93214943 126.94001218 30.63867188 127.59902954 C27.23004363 129.33573348 23.84342485 131.11458282 20.453125 132.88671875 C19.77036499 133.24195114 19.08760498 133.59718353 18.38415527 133.96318054 C11.00595788 137.81224269 3.77977395 141.91350189 -3.44042969 146.05078125 C-5.11737336 147.01010545 -6.79713427 147.96453225 -8.48046875 148.91259766 C-10.29026962 149.93576149 -12.08453375 150.98633542 -13.875 152.04296875 C-17.3308481 153.40272716 -19.03130585 152.96201651 -22.625 152.125 C-25.34375 150.91674805 -25.34375 150.91674805 -28.125 149.38671875 C-29.16648193 148.81953125 -30.20796387 148.25234375 -31.28100586 147.66796875 C-32.38452393 147.05566406 -33.48804199 146.44335938 -34.625 145.8125 C-36.36916937 144.85852511 -38.11334015 143.90455279 -39.85765076 142.95083618 C-41.6322539 141.97863477 -43.40457288 141.0023891 -45.17626953 140.02490234 C-49.36668312 137.71640747 -53.56868928 135.42964616 -57.77148438 133.14379883 C-61.21152039 131.27181982 -64.6499333 129.39710316 -68.07861328 127.50439453 C-69.92256459 126.50551391 -71.78263019 125.53619407 -73.65185547 124.58544922 C-74.64975098 124.06998535 -75.64764648 123.55452148 -76.67578125 123.0234375 C-77.59141846 122.56114746 -78.50705566 122.09885742 -79.45043945 121.62255859 C-81.625 120.125 -81.625 120.125 -82.5625 118.1496582 C-82.95970449 115.73508933 -82.79693882 113.56922832 -82.625 111.125 C-82.65207031 109.82949219 -82.67914063 108.53398438 -82.70703125 107.19921875 C-82.76949196 96.5857967 -82.76949196 96.5857967 -79.7734375 92.76171875 C-77.77599382 91.28304578 -75.89851612 90.11933963 -73.625 89.125 C-74.19089844 88.79886719 -74.75679687 88.47273438 -75.33984375 88.13671875 C-76.07332031 87.69972656 -76.80679688 87.26273437 -77.5625 86.8125 C-78.29339844 86.38324219 -79.02429688 85.95398438 -79.77734375 85.51171875 C-81.625 84.125 -81.625 84.125 -82.625 81.125 C-82.74798374 78.34213532 -82.81013571 75.59526612 -82.8125 72.8125 C-82.82474609 72.06548828 -82.83699219 71.31847656 -82.84960938 70.54882812 C-82.86147762 66.04285147 -82.52225897 62.30147436 -80.625 58.125 C-77.5 55.75 -77.5 55.75 -74.625 54.125 C-75.388125 53.361875 -76.15125 52.59875 -76.9375 51.8125 C-77.824375 50.925625 -78.71125 50.03875 -79.625 49.125 C-80.16793701 48.65747314 -80.71087402 48.18994629 -81.27026367 47.70825195 C-82.97482355 45.71616855 -82.99932174 44.69879145 -82.98828125 42.10546875 C-82.98763672 41.33009766 -82.98699219 40.55472656 -82.98632812 39.75585938 C-82.97021484 38.94955078 -82.95410156 38.14324219 -82.9375 37.3125 C-82.94072266 36.51779297 -82.94394531 35.72308594 -82.94726562 34.90429688 C-82.90564176 30.3294556 -82.7285677 26.277576 -80.625 22.125 C-75.72760219 18.03734682 -69.68216375 15.63084666 -63.9375 12.9375 C-62.92526367 12.45845215 -61.91302734 11.9794043 -60.87011719 11.48583984 C-58.79339015 10.50344578 -56.71575229 9.5229748 -54.63720703 8.54443359 C-51.01393205 6.83704822 -47.39741349 5.11571605 -43.78149414 3.39282227 C-41.4386098 2.28020772 -39.09084782 1.1784826 -36.7421875 0.078125 C-34.23885818 -1.09762931 -31.78026582 -2.31034764 -29.3203125 -3.578125 C-28.38960937 -4.04734375 -27.45890625 -4.5165625 -26.5 -5 C-25.75492188 -5.39445313 -25.00984375 -5.78890625 -24.2421875 -6.1953125 C-15.38966772 -8.4943251 -7.70879063 -3.90616375 0 0 Z " fill="#D6D6D9" transform="translate(99.625,15.875)"/>
<path d="M0 0 C0.96558838 -0.00418945 1.93117676 -0.00837891 2.92602539 -0.01269531 C4.46891235 0.00132324 4.46891235 0.00132324 6.04296875 0.015625 C7.08509521 0.02239258 8.12722168 0.02916016 9.20092773 0.03613281 C30.79480699 0.32501414 30.79480699 0.32501414 37.23046875 6.265625 C41.23046875 11.52878289 41.23046875 11.52878289 41.23046875 14.265625 C42.22046875 13.935625 43.21046875 13.605625 44.23046875 13.265625 C46.37206665 13.09530235 48.52010802 12.99944663 50.66796875 12.953125 C51.80105469 12.91574219 52.93414062 12.87835938 54.1015625 12.83984375 C57.23046875 13.265625 57.23046875 13.265625 59.44140625 14.80859375 C61.72922481 17.95059784 63.08401441 21.27335661 64.41796875 24.890625 C64.93184181 26.23715093 65.44614535 27.58351268 65.9609375 28.9296875 C66.37988281 30.03054687 66.79882812 31.13140625 67.23046875 32.265625 C67.56046875 32.925625 67.89046875 33.585625 68.23046875 34.265625 C68.49859375 33.58886719 68.76671875 32.91210938 69.04296875 32.21484375 C70.40869824 28.82298268 71.80843568 25.44665382 73.23046875 22.078125 C73.49085938 21.44970703 73.75125 20.82128906 74.01953125 20.17382812 C75.18460865 17.42295092 76.09713689 15.39895686 78.23046875 13.265625 C80.72547653 13.14584125 83.11630038 13.12533849 85.60546875 13.203125 C91.49147806 13.42091512 91.49147806 13.42091512 97.23046875 12.265625 C97.29105469 11.62753906 97.35164063 10.98945312 97.4140625 10.33203125 C97.53974609 9.09259766 97.53974609 9.09259766 97.66796875 7.828125 C97.78978516 6.59255859 97.78978516 6.59255859 97.9140625 5.33203125 C98.23046875 3.265625 98.23046875 3.265625 99.23046875 2.265625 C101.74182979 2.16587468 104.2195029 2.12680317 106.73046875 2.140625 C107.43300781 2.13675781 108.13554687 2.13289063 108.859375 2.12890625 C114.10385497 2.13901122 114.10385497 2.13901122 115.23046875 3.265625 C115.30252386 4.95171466 115.31432943 6.64063159 115.29296875 8.328125 C115.28394531 9.24722656 115.27492188 10.16632812 115.265625 11.11328125 C115.25402344 11.82355469 115.24242187 12.53382812 115.23046875 13.265625 C116.34421875 13.224375 117.45796875 13.183125 118.60546875 13.140625 C122.23046875 13.265625 122.23046875 13.265625 124.23046875 15.265625 C124.79566878 17.92099872 124.96835073 20.55707213 125.23046875 23.265625 C128.89053379 22.21989213 130.24104817 21.2529297 132.73046875 18.265625 C135.87322923 14.49431242 138.28472408 13.59841443 143.0625 12.78125 C152.05304274 11.97999586 158.95774479 12.2577226 166.23046875 18.265625 C168.87924703 21.39205182 171.39352843 24.59174437 173.23046875 28.265625 C174.20110675 25.35371101 174.40859437 23.27126658 174.51171875 20.23046875 C174.54910156 19.25658203 174.58648437 18.28269531 174.625 17.27929688 C174.69544627 15.22461396 174.76575826 13.16992643 174.8359375 11.11523438 C174.87332031 10.14263672 174.91070312 9.17003906 174.94921875 8.16796875 C174.97951172 7.27585693 175.00980469 6.38374512 175.04101562 5.46459961 C175.23046875 3.265625 175.23046875 3.265625 176.23046875 1.265625 C182.78861086 -0.25995699 189.48514949 0.26741674 196.16796875 0.515625 C197.30943359 0.54269531 198.45089844 0.56976563 199.62695312 0.59765625 C207.55187022 0.88150654 213.98394511 1.43355119 220.16796875 6.828125 C223.11948567 10.86019727 223.53212878 15.37873248 223.23046875 20.265625 C222.43070246 23.04576495 221.33992248 25.58444515 220.23046875 28.265625 C220.6420343 31.32628151 221.32120475 32.38110718 223.29296875 34.890625 C225.93133458 39.48648805 226.25753669 43.08360041 225.23046875 48.265625 C223.08506028 53.04136302 220.55870456 56.3982057 216.16796875 59.265625 C209.10202208 61.67105365 202.09701854 61.45176535 194.71850586 61.45092773 C192.53935625 61.45312865 190.36070179 61.47135425 188.18164062 61.49023438 C186.79817881 61.49316601 185.4147146 61.49515234 184.03125 61.49609375 C182.77481689 61.50020264 181.51838379 61.50431152 180.22387695 61.50854492 C177.23046875 61.265625 177.23046875 61.265625 175.23046875 59.265625 C174.8515625 56.26171875 174.8515625 56.26171875 174.66796875 52.703125 C174.80821649 48.66475554 174.80821649 48.66475554 173.23046875 45.265625 C172.81087891 46.02746094 172.81087891 46.02746094 172.3828125 46.8046875 C168.44953509 53.55828922 163.8696677 58.85498441 156.23046875 61.265625 C147.75823468 62.0367385 140.13104654 62.3340292 133.3671875 56.71875 C125.89591116 49.72699657 124.62004991 43.24696305 124.23046875 33.265625 C124.21913114 31.5989969 124.21517887 29.93222153 124.23046875 28.265625 C121.26046875 27.935625 118.29046875 27.605625 115.23046875 27.265625 C115.72546875 35.680625 115.72546875 35.680625 116.23046875 44.265625 C118.54046875 44.925625 120.85046875 45.585625 123.23046875 46.265625 C125.23046875 48.265625 125.23046875 48.265625 125.27734375 50.796875 C125.179375 51.7765625 125.08140625 52.75625 124.98046875 53.765625 C124.8928125 54.7453125 124.80515625 55.725 124.71484375 56.734375 C124.23046875 59.265625 124.23046875 59.265625 122.23046875 61.265625 C115.37022341 62.15491606 109.3718854 61.3902054 103.23046875 58.265625 C98.58250448 54.22923497 97.81890648 49.15000231 97.23046875 43.265625 C97.08318025 38.25781616 97.11024698 33.27486521 97.23046875 28.265625 C94.92046875 27.275625 92.61046875 26.285625 90.23046875 25.265625 C89.66585937 27.05806641 89.66585937 27.05806641 89.08984375 28.88671875 C86.88375264 35.49853398 84.16698294 41.90053941 81.48046875 48.328125 C81.21412628 48.96714752 80.94778381 49.60617004 80.67337036 50.26455688 C79.34566838 53.4498737 78.01437214 56.63364701 76.67822266 59.81542969 C75.79448042 61.92150815 74.91329263 64.02866382 74.03662109 66.13769531 C73.08985392 68.41365454 72.13194689 70.68441492 71.16796875 72.953125 C70.66136719 74.15324219 70.15476562 75.35335937 69.6328125 76.58984375 C68.23046875 79.265625 68.23046875 79.265625 65.23046875 81.265625 C61.875 81.4609375 61.875 81.4609375 58.04296875 81.390625 C56.77066406 81.37257813 55.49835938 81.35453125 54.1875 81.3359375 C53.21167969 81.31273437 52.23585937 81.28953125 51.23046875 81.265625 C49.93953003 76.93902433 50.53500219 74.81577691 52.54296875 70.828125 C53.00574219 69.86519531 53.46851563 68.90226562 53.9453125 67.91015625 C54.36941406 67.03746094 54.79351562 66.16476563 55.23046875 65.265625 C57.58817026 59.69287599 57.39308313 55.4815346 55.36621094 49.875 C54.25866924 47.1932615 53.10073581 44.54002322 51.91796875 41.890625 C51.52673828 40.99601562 51.13550781 40.10140625 50.73242188 39.1796875 C49.19226777 35.66517333 47.63755201 32.15828965 46.04541016 28.66699219 C45.6797998 27.86165039 45.31418945 27.05630859 44.9375 26.2265625 C44.60854736 25.51032715 44.27959473 24.7940918 43.94067383 24.05615234 C43.23046875 22.265625 43.23046875 22.265625 43.23046875 20.265625 C42.57046875 20.265625 41.91046875 20.265625 41.23046875 20.265625 C41.12734375 20.9875 41.02421875 21.709375 40.91796875 22.453125 C40.17059943 25.51054493 38.95001686 27.64892135 37.23046875 30.265625 C37.57980469 30.73613281 37.92914063 31.20664063 38.2890625 31.69140625 C38.74410156 32.31402344 39.19914062 32.93664062 39.66796875 33.578125 C40.12042969 34.19300781 40.57289063 34.80789062 41.0390625 35.44140625 C43.56118462 39.30314733 43.53002863 42.77222676 43.23046875 47.265625 C41.59826933 53.46798279 38.8383814 55.71340955 33.484375 59.1015625 C27.25212821 62.32029654 20.20216176 61.45167445 13.36669922 61.45092773 C11.10625659 61.45312423 8.84629451 61.4713285 6.5859375 61.49023438 C5.15234542 61.49316669 3.71875102 61.49515257 2.28515625 61.49609375 C0.32811768 61.50225708 0.32811768 61.50225708 -1.66845703 61.50854492 C-4.76953125 61.265625 -4.76953125 61.265625 -6.76953125 59.265625 C-7.02349854 56.87463379 -7.02349854 56.87463379 -7.02832031 53.83789062 C-7.03462463 52.70331421 -7.04092896 51.56873779 -7.04742432 50.39978027 C-7.04337585 49.16957153 -7.03932739 47.93936279 -7.03515625 46.671875 C-7.0370697 45.41427368 -7.03898315 44.15667236 -7.04095459 42.86096191 C-7.04231774 40.19769625 -7.03961131 37.5347957 -7.03027344 34.87158203 C-7.01887877 31.45491106 -7.02543873 28.03855428 -7.03741837 24.62189484 C-7.04637579 21.36771021 -7.04010753 18.11356373 -7.03515625 14.859375 C-7.03920471 13.62916626 -7.04325317 12.39895752 -7.04742432 11.13146973 C-7.04112 9.99689331 -7.03481567 8.86231689 -7.02832031 7.69335938 C-7.02672913 6.69123413 -7.02513794 5.68910889 -7.02349854 4.65661621 C-6.53229254 0.03212603 -4.030159 0.01044566 0 0 Z M11.23046875 16.265625 C10.89706404 19.30757927 10.89706404 19.30757927 11.23046875 22.265625 C12.26453548 23.52511549 12.26453548 23.52511549 14.515625 23.36328125 C15.43214844 23.35167969 16.34867188 23.34007812 17.29296875 23.328125 C18.21207031 23.31910156 19.13117188 23.31007813 20.078125 23.30078125 C20.78839844 23.28917969 21.49867188 23.27757812 22.23046875 23.265625 C22.89046875 21.945625 23.55046875 20.625625 24.23046875 19.265625 C21.96647722 16.56625048 20.59929179 15.37100301 17.16796875 14.390625 C14.03781348 13.9682591 14.03781348 13.9682591 11.23046875 16.265625 Z M193.23046875 16.265625 C193.18953938 18.59859933 193.18805152 20.93267725 193.23046875 23.265625 C196.86046875 23.265625 200.49046875 23.265625 204.23046875 23.265625 C204.89046875 21.945625 205.55046875 20.625625 206.23046875 19.265625 C205.90046875 18.275625 205.57046875 17.285625 205.23046875 16.265625 C202.85080755 15.0757944 201.3156114 15.13212534 198.66796875 15.140625 C197.86230469 15.13804688 197.05664062 15.13546875 196.2265625 15.1328125 C194.23104854 15.04551109 194.23104854 15.04551109 193.23046875 16.265625 Z M143.23046875 30.265625 C146.86046875 30.265625 150.49046875 30.265625 154.23046875 30.265625 C151.79266834 26.08912048 151.79266834 26.08912048 148.73046875 25.765625 C145.66826916 26.08912048 145.66826916 26.08912048 143.23046875 30.265625 Z M11.23046875 38.265625 C11.23046875 40.905625 11.23046875 43.545625 11.23046875 46.265625 C13.00096564 46.31973187 14.77193724 46.35846619 16.54296875 46.390625 C18.02216797 46.42542969 18.02216797 46.42542969 19.53125 46.4609375 C22.45453402 46.47245139 22.45453402 46.47245139 25.23046875 44.265625 C25.28214402 41.84295414 25.28214402 41.84295414 24.23046875 39.265625 C18.92529037 36.46834913 16.45833915 35.47742745 11.23046875 38.265625 Z M193.23046875 38.265625 C193.15898676 39.61806417 193.14647421 40.97396867 193.16796875 42.328125 C193.18859375 43.6275 193.20921875 44.926875 193.23046875 46.265625 C195.18850382 46.31951587 197.14695784 46.35836717 199.10546875 46.390625 C200.19601562 46.41382813 201.2865625 46.43703125 202.41015625 46.4609375 C205.36757385 46.56623034 205.36757385 46.56623034 207.23046875 44.265625 C207.64713542 41.765625 207.64713542 41.765625 207.23046875 39.265625 C203.94784844 37.07721146 202.91255977 37.01707835 199.10546875 37.078125 C198.21601563 37.08457031 197.3265625 37.09101562 196.41015625 37.09765625 C194.25310346 37.02609452 194.25310346 37.02609452 193.23046875 38.265625 Z M143.23046875 41.265625 C143.72802967 44.02203916 143.72802967 44.02203916 145.23046875 46.265625 C149.49750717 46.67591716 151.5707959 46.71476396 155.16796875 44.265625 C155.84859375 43.605625 156.52921875 42.945625 157.23046875 42.265625 C154.07540733 41.32942687 151.26460373 41.1599127 147.98046875 41.203125 C146.64242187 41.21666016 146.64242187 41.21666016 145.27734375 41.23046875 C144.601875 41.24207031 143.92640625 41.25367188 143.23046875 41.265625 Z " fill="#FBFBF9" transform="translate(176.76953125,46.734375)"/>
<path d="M0 0 C4.03842757 0.7244396 6.52012969 1.80041392 10 4 C11.55084228 4.86476504 13.10754273 5.71905686 14.66796875 6.56640625 C15.55250732 7.04706543 16.4370459 7.52772461 17.34838867 8.02294922 C18.28529541 8.53100098 19.22220215 9.03905273 20.1875 9.5625 C28.1145773 13.87250756 36.02041681 18.21759831 43.90258789 22.60913086 C49.58373031 25.77327028 55.28487473 28.89750342 61 32 C61 39.26 61 46.52 61 54 C68.1628776 51.15112823 74.6074894 48.26548561 81 44 C88.4368874 39.11564428 95.23214464 34.90003186 104 33 C104 32.34 104 31.68 104 31 C106.97860444 29.26528229 108.8867553 28.74774215 112.3125 29.125 C113.03050781 29.18945312 113.74851562 29.25390625 114.48828125 29.3203125 C117 30 117 30 124 34 C124 42.25 124 50.5 124 59 C113.01874228 65.13120223 102.00855738 71.19910807 90.92822266 77.1496582 C86.13723107 79.72874338 81.376549 82.33858311 76.6796875 85.0859375 C75.45572266 85.79459961 75.45572266 85.79459961 74.20703125 86.51757812 C72.69878711 87.39549243 71.19812125 88.28661546 69.70703125 89.19335938 C69.03800781 89.58072266 68.36898437 89.96808594 67.6796875 90.3671875 C67.10976074 90.70862793 66.53983398 91.05006836 65.95263672 91.40185547 C62.13749049 92.57053617 58.81882323 91.36389693 55.28125 89.79174805 C53.90453125 89.03438354 53.90453125 89.03438354 52.5 88.26171875 C50.9377771 87.4109375 50.9377771 87.4109375 49.34399414 86.54296875 C48.24047607 85.93066406 47.13695801 85.31835938 46 84.6875 C44.25583063 83.73352511 42.51165985 82.77955279 40.76734924 81.82583618 C38.9927461 80.85363477 37.22042712 79.8773891 35.44873047 78.89990234 C31.25831688 76.59140747 27.05631072 74.30464616 22.85351562 72.01879883 C19.41347961 70.14681982 15.9750667 68.27210316 12.54638672 66.37939453 C10.70243541 65.38051391 8.84236981 64.41119407 6.97314453 63.46044922 C5.97524902 62.94498535 4.97735352 62.42952148 3.94921875 61.8984375 C3.03358154 61.43614746 2.11794434 60.97385742 1.17456055 60.49755859 C-1 59 -1 59 -1.9375 57.0246582 C-2.33470449 54.61008933 -2.17193882 52.44422832 -2 50 C-2.02707031 48.70449219 -2.05414062 47.40898438 -2.08203125 46.07421875 C-2.14449196 35.4607967 -2.14449196 35.4607967 0.8515625 31.63671875 C2.84900618 30.15804578 4.72648388 28.99433963 7 28 C6.030625 27.38125 5.06125 26.7625 4.0625 26.125 C1 24 1 24 0 22 C-0.08426094 20.3325394 -0.10725143 18.66174813 -0.09765625 16.9921875 C-0.09443359 16.00605469 -0.09121094 15.01992187 -0.08789062 14.00390625 C-0.07951172 12.97136719 -0.07113281 11.93882813 -0.0625 10.875 C-0.05798828 9.83472656 -0.05347656 8.79445313 -0.04882812 7.72265625 C-0.03701952 5.14838038 -0.02055075 2.57421854 0 0 Z " fill="#939598" transform="translate(19,77)"/>
<path d="M0 0 C1.78632239 0.88450879 3.57265363 1.76900088 5.35975647 2.65193176 C6.57237435 3.25212234 7.78407467 3.85417024 8.99485779 4.45805359 C15.95433461 7.92868021 22.99502622 11.22727985 30.03955078 14.52099609 C40.93408305 19.68408305 40.93408305 19.68408305 44.375 23.125 C44.65558489 27.07614545 44.60681436 31.04007723 44.625 35 C44.645625 36.11503906 44.66625 37.23007812 44.6875 38.37890625 C44.69523437 39.98185547 44.69523437 39.98185547 44.703125 41.6171875 C44.7124707 42.60058105 44.72181641 43.58397461 44.73144531 44.59716797 C44.31459857 47.5533537 43.70799906 48.33894885 41.375 50.125 C39.72894174 51.15857147 38.06536558 52.16560332 36.375 53.125 C38.355 54.445 40.335 55.765 42.375 57.125 C41.385 57.62 41.385 57.62 40.375 58.125 C37.8999829 57.01068235 35.69616581 55.54349022 33.375 54.125 C34 52.25 34 52.25 35.375 50.125 C37.36672182 49.43399447 39.36661804 48.76597297 41.375 48.125 C42.32668683 45.26993951 42.5650946 43.21562718 42.69140625 40.23828125 C42.73330078 39.30048828 42.77519531 38.36269531 42.81835938 37.39648438 C42.85767578 36.42001953 42.89699219 35.44355469 42.9375 34.4375 C43.00227539 32.95540039 43.00227539 32.95540039 43.06835938 31.44335938 C43.17441542 29.00407028 43.27520974 26.56455346 43.375 24.125 C38.92 25.61 38.92 25.61 34.375 27.125 C34.375 27.785 34.375 28.445 34.375 29.125 C30.41612833 32.77934308 25.51238445 33.93944974 20.375 35.125 C20.375 35.785 20.375 36.445 20.375 37.125 C6.14575099 45.125 6.14575099 45.125 2.375 45.125 C2.375 45.785 2.375 46.445 2.375 47.125 C1.055 47.455 -0.265 47.785 -1.625 48.125 C-1.625 48.785 -1.625 49.445 -1.625 50.125 C-2.42164062 50.45113281 -3.21828125 50.77726562 -4.0390625 51.11328125 C-5.09867187 51.55027344 -6.15828125 51.98726562 -7.25 52.4375 C-8.29414062 52.86675781 -9.33828125 53.29601562 -10.4140625 53.73828125 C-13.66922783 55.05685183 -13.66922783 55.05685183 -16.65625 56.96484375 C-19.625 58.125 -19.625 58.125 -22.4921875 57.203125 C-23.48476562 56.59984375 -24.47734375 55.9965625 -25.5 55.375 C-26.6240625 54.71371094 -27.748125 54.05242187 -28.90625 53.37109375 C-29.504375 53.00741699 -30.1025 52.64374023 -30.71875 52.26904297 C-33.41395769 50.65150413 -36.16017628 49.13072036 -38.90673828 47.60253906 C-43.44898981 45.07447465 -47.96694825 42.50371398 -52.4765625 39.91796875 C-54.17315066 38.95179758 -55.87871294 37.99814353 -57.625 37.125 C-57.625 36.465 -57.625 35.805 -57.625 35.125 C-58.29273437 35.04121094 -58.96046875 34.95742188 -59.6484375 34.87109375 C-63.54961443 33.89323969 -66.7445042 32.12168469 -70.25 30.1875 C-70.91773438 29.82720703 -71.58546875 29.46691406 -72.2734375 29.09570312 C-75.1419458 27.53810312 -77.90757738 25.93661508 -80.625 24.125 C-80.625 31.715 -80.625 39.305 -80.625 47.125 C-81.285 46.795 -81.945 46.465 -82.625 46.125 C-82.67925013 43.24974331 -82.71879277 40.37552354 -82.75 37.5 C-82.76675781 36.69175781 -82.78351563 35.88351563 -82.80078125 35.05078125 C-82.83863382 30.39491525 -82.79578388 26.35492744 -80.625 22.125 C-75.72760219 18.03734682 -69.68216375 15.63084666 -63.9375 12.9375 C-62.92526367 12.45845215 -61.91302734 11.9794043 -60.87011719 11.48583984 C-58.79339015 10.50344578 -56.71575229 9.5229748 -54.63720703 8.54443359 C-51.01393205 6.83704822 -47.39741349 5.11571605 -43.78149414 3.39282227 C-41.4386098 2.28020772 -39.09084782 1.1784826 -36.7421875 0.078125 C-34.23885818 -1.09762931 -31.78026582 -2.31034764 -29.3203125 -3.578125 C-28.38960937 -4.04734375 -27.45890625 -4.5165625 -26.5 -5 C-25.75492188 -5.39445313 -25.00984375 -5.78890625 -24.2421875 -6.1953125 C-15.38966772 -8.4943251 -7.70879063 -3.90616375 0 0 Z " fill="#FCFCFB" transform="translate(99.625,15.875)"/>
<path d="M0 0 C5.20395315 2.02596649 9.95731979 4.64936325 14.84375 7.34375 C17.52834042 8.75249547 20.16336012 9.94155228 23 11 C23 11.66 23 12.32 23 13 C23.78375 13.20625 24.5675 13.4125 25.375 13.625 C29.40249737 15.15267141 32.77589973 17.1744733 36.43359375 19.42578125 C41.22956413 22.36760174 46.10329585 25.10729695 51.1953125 27.50390625 C52.28585938 28.01824219 53.37640625 28.53257813 54.5 29.0625 C55.5209375 29.52785156 56.541875 29.99320313 57.59375 30.47265625 C60 32 60 32 60.64428711 33.8112793 C61.01626873 36.10010236 61.11332077 38.22852534 61.09765625 40.546875 C61.09443359 41.39121094 61.09121094 42.23554687 61.08789062 43.10546875 C61.07532227 44.41451172 61.07532227 44.41451172 61.0625 45.75 C61.05798828 46.63816406 61.05347656 47.52632812 61.04882812 48.44140625 C61.037074 50.62767329 61.02064249 52.81380179 61 55 C62.01320313 54.45859375 62.01320313 54.45859375 63.046875 53.90625 C63.93890625 53.4421875 64.8309375 52.978125 65.75 52.5 C66.63171875 52.0359375 67.5134375 51.571875 68.421875 51.09375 C71 50 71 50 75 50 C75 49.34 75 48.68 75 48 C76.07121094 47.43410156 77.14242187 46.86820313 78.24609375 46.28515625 C79.6432798 45.54436633 81.04041247 44.80347571 82.4375 44.0625 C83.14455078 43.68931641 83.85160156 43.31613281 84.58007812 42.93164062 C88.00478658 41.27507665 88.00478658 41.27507665 91 39 C93.875 38.75 93.875 38.75 97 39 C98.6953125 40.515625 98.6953125 40.515625 100 42 C94.04202626 45.64457396 88.02448452 49.1173794 81.8671875 52.4140625 C78.77070347 54.12683159 75.76940884 55.96772403 72.75 57.8125 C64.58562197 62.49131664 64.58562197 62.49131664 60 62 C56.84808885 60.41308507 53.88621417 58.63922286 50.8984375 56.76171875 C48.60262798 55.36628735 46.70948016 54.38296953 44.1875 53.5625 C36.12569686 50.85265021 28.6022544 46.07701686 21.25 41.85546875 C18.21355967 40.12192409 15.14176634 38.53256894 12 37 C12 36.34 12 35.68 12 35 C14 33.375 14 33.375 16 32 C13.69 31.34 11.38 30.68 9 30 C9 29.34 9 28.68 9 28 C7.88625 27.71125 6.7725 27.4225 5.625 27.125 C2 26 2 26 0 24 C-0.22705078 21.56982422 -0.22705078 21.56982422 -0.1953125 18.5546875 C-0.18886719 17.47832031 -0.18242187 16.40195312 -0.17578125 15.29296875 C-0.15902344 14.16503906 -0.14226563 13.03710938 -0.125 11.875 C-0.11597656 10.73933594 -0.10695313 9.60367188 -0.09765625 8.43359375 C-0.07403098 5.62218701 -0.04109013 2.81119702 0 0 Z " fill="#9D9EA2" transform="translate(19,40)"/>
<path d="M0 0 C6.28488953 6.58416999 7.96259381 12.95723202 7.83203125 21.87109375 C7.30364963 29.21858904 5.01429895 34.38421932 -0.515625 39.30859375 C-7.77534629 44.9364029 -15.46591289 44.44062691 -24.375 43.75 C-30.73373471 42.62201576 -35.47524051 37.64487054 -39.375 32.75 C-43.04985798 25.58934425 -42.30261878 15.42231867 -40.328125 7.75 C-37.55112938 1.92286165 -31.17673122 -1.92930751 -25.375 -4.25 C-16.94402484 -6.62796735 -7.06773799 -5.42158129 0 0 Z M-23.375 12.75 C-24.61683945 16.47551834 -25.03658228 19.88575806 -24.375 23.75 C-22.4155988 26.8764113 -22.4155988 26.8764113 -19.375 28.75 C-16.19513955 29.25877767 -14.39437246 29.31241239 -11.5625 27.75 C-9.01356283 23.45705318 -9.08025572 19.07634927 -10.125 14.375 C-11.23017051 11.47623996 -11.23017051 11.47623996 -14.375 9.75 C-18.41946301 9.2314791 -20.44134388 9.92111732 -23.375 12.75 Z " fill="#FBFBF9" transform="translate(444.375,64.25)"/>
<path d="M0 0 C2.39774745 -0.13572155 4.78775245 -0.23436868 7.1875 -0.3125 C8.19780273 -0.3753418 8.19780273 -0.3753418 9.22851562 -0.43945312 C13.2071856 -0.53649386 14.80548105 -0.15727064 17.9375 2.375 C19.80528319 4.75217861 20.67166872 6.04501844 21 9 C22.88658874 9.03525132 22.88658874 9.03525132 25 8 C26.52956035 5.76067964 27.71657623 3.39572437 29 1 C31.83387515 -0.41693757 34.28029373 -0.1699013 37.4375 -0.1875 C38.59121094 -0.20167969 39.74492187 -0.21585938 40.93359375 -0.23046875 C44 0 44 0 47 2 C45.23963427 7.38285243 41.86196676 11.37774652 38.36914062 15.74023438 C36.08730767 18.76176427 35.00092903 20.25491756 34.99609375 24.1328125 C36.06435365 27.18379602 37.32042343 29.34935056 39.25 31.9375 C39.87519531 32.78957031 40.50039063 33.64164063 41.14453125 34.51953125 C41.75683594 35.33808594 42.36914062 36.15664062 43 37 C43.98252164 38.37260467 44.96218618 39.74726443 45.9375 41.125 C46.618125 42.07375 47.29875 43.0225 48 44 C47.34 45.32 46.68 46.64 46 48 C43.5821288 48.10826289 41.16912444 48.18739789 38.75 48.25 C37.72712891 48.30027344 37.72712891 48.30027344 36.68359375 48.3515625 C33.22535174 48.41871283 31.38635807 48.29909553 28.61328125 46.15234375 C27 44 27 44 25.4375 41.3125 C24.15227904 38.69589558 24.15227904 38.69589558 21 38 C20.7525 38.721875 20.505 39.44375 20.25 40.1875 C18.79673065 43.45735603 17.5941734 45.5056025 15 48 C12.03327323 48.37233017 9.68143759 48.4808246 6.75 48.3125 C6.00492187 48.28994141 5.25984375 48.26738281 4.4921875 48.24414062 C2.660591 48.18543561 0.83003347 48.09575757 -1 48 C-2 45 -2 45 -1.22729492 43.23828125 C-0.81584229 42.60277344 -0.40438965 41.96726563 0.01953125 41.3125 C0.46490234 40.61382812 0.91027344 39.91515625 1.36914062 39.1953125 C1.84544922 38.47085938 2.32175781 37.74640625 2.8125 37 C3.27720703 36.27554688 3.74191406 35.55109375 4.22070312 34.8046875 C6.1198612 31.85104711 8.05214639 28.92178041 10 26 C10.5513399 21.16921233 9.66617766 18.82288836 6.75 15 C6.11578125 14.14148438 5.4815625 13.28296875 4.828125 12.3984375 C4.22484375 11.60695313 3.6215625 10.81546875 3 10 C1.49855242 8.01775179 0.23945317 6.16904305 -1 4 C-0.59375 1.8359375 -0.59375 1.8359375 0 0 Z " fill="#FAFAF8" transform="translate(453,60)"/>
<path d="M0 0 C6.4535225 1.07558708 6.4535225 1.07558708 9 4 C10.76206264 5.04299249 10.76206264 5.04299249 12.6875 5.90625 C17.59085834 8.2638062 22.27990211 10.94338148 27 13.64453125 C30.24439921 15.48851596 33.4960764 17.27173255 36.84375 18.921875 C41.81557718 21.37373498 46.65131072 24.06489736 51.5 26.75 C52.87671875 27.50990234 52.87671875 27.50990234 54.28125 28.28515625 C56.52161427 29.52202402 58.7609176 30.76081318 61 32 C61 38.93 61 45.86 61 53 C53.84847839 52.20538649 50.00705098 51.4909909 44.10546875 48.2109375 C43.39199783 47.82942535 42.67852692 47.44791321 41.94343567 47.05484009 C39.68374726 45.84192239 37.43585507 44.60877364 35.1875 43.375 C33.6927624 42.57030346 32.19732366 41.76690787 30.70117188 40.96484375 C23.24839976 36.95297278 15.87629266 32.83069853 8.60668945 28.49462891 C5.79895046 26.8847218 2.89485048 25.44742524 0 24 C0 16.08 0 8.16 0 0 Z " fill="#808185" transform="translate(20,113)"/>
<path d="M0 0 C4.03842757 0.7244396 6.52012969 1.80041392 10 4 C11.55084228 4.86476504 13.10754273 5.71905686 14.66796875 6.56640625 C15.55250732 7.04706543 16.4370459 7.52772461 17.34838867 8.02294922 C18.28529541 8.53100098 19.22220215 9.03905273 20.1875 9.5625 C28.1145773 13.87250756 36.02041681 18.21759831 43.90258789 22.60913086 C49.58373031 25.77327028 55.28487473 28.89750342 61 32 C61 39.26 61 46.52 61 54 C50.62080341 49.84832136 40.75670674 44.43587947 31 39 C31 38.34 31 37.68 31 37 C30.42765625 36.86722656 29.8553125 36.73445313 29.265625 36.59765625 C27.02349125 36.00619683 24.91420381 35.26711146 22.75 34.4375 C22.04359375 34.16808594 21.3371875 33.89867187 20.609375 33.62109375 C20.07828125 33.41613281 19.5471875 33.21117187 19 33 C19 32.34 19 31.68 19 31 C14.7161369 29.62916381 10.42017846 29.10014968 6.12402344 30.69750977 C3.95085923 31.95396106 2.55173263 33.00992043 1 35 C0.12573027 39.13070656 0.33919705 43.11391369 0.5625 47.3125 C0.59408203 48.43462891 0.62566406 49.55675781 0.65820312 50.71289062 C0.74056605 53.47793172 0.85551425 56.23762302 1 59 C0.34 59 -0.32 59 -1 59 C-2.32667396 50.74513981 -2.77655584 42.20557723 -1 34 C1.28095165 31.08865876 3.62792938 29.47480082 7 28 C6.030625 27.38125 5.06125 26.7625 4.0625 26.125 C1 24 1 24 0 22 C-0.08426094 20.3325394 -0.10725143 18.66174813 -0.09765625 16.9921875 C-0.09443359 16.00605469 -0.09121094 15.01992187 -0.08789062 14.00390625 C-0.07951172 12.97136719 -0.07113281 11.93882813 -0.0625 10.875 C-0.05798828 9.83472656 -0.05347656 8.79445313 -0.04882812 7.72265625 C-0.03701952 5.14838038 -0.02055075 2.57421854 0 0 Z " fill="#AFB0B2" transform="translate(19,77)"/>
<path d="M0 0 C0.66 0 1.32 0 2 0 C2.20373055 3.89505947 2.32777065 7.78874911 2.4375 11.6875 C2.49615234 12.79029297 2.55480469 13.89308594 2.61523438 15.02929688 C2.78524894 23.06855724 2.78524894 23.06855724 0.41064453 25.88525391 C-1.52734375 27.26953125 -1.52734375 27.26953125 -5 29 C-4.43410156 29.24492188 -3.86820313 29.48984375 -3.28515625 29.7421875 C2.54636801 32.71431761 2.54636801 32.71431761 3.75390625 36.13671875 C4.02241927 38.78348996 4.04763243 41.33991191 4 44 C4.05220703 45.58941406 4.05220703 45.58941406 4.10546875 47.2109375 C4.31683673 55.5247449 4.31683673 55.5247449 2 59 C1.67 51.08 1.34 43.16 1 35 C-8.51990837 30.58021857 -8.51990837 30.58021857 -18 32 C-18 32.66 -18 33.32 -18 34 C-21.05975342 35.56719078 -24.10542467 37.04380144 -27.28125 38.36328125 C-30.98384542 39.93990498 -34.46371817 41.84996016 -37.9375 43.875 C-38.54650146 44.22578613 -39.15550293 44.57657227 -39.78295898 44.93798828 C-43.08689737 46.85095674 -46.34532736 48.81992394 -49.5625 50.875 C-53.31643495 53.25730487 -56.46848497 55 -61 55 C-61.054138 52.75026553 -61.09285491 50.50015617 -61.125 48.25 C-61.14820312 46.99703125 -61.17140625 45.7440625 -61.1953125 44.453125 C-61.00808999 41.14303102 -60.72849062 39.72437594 -59 37 C-58.566875 36.15308594 -58.13375 35.30617187 -57.6875 34.43359375 C-55.7143983 31.58812533 -54.07795476 30.60595115 -51 29.0625 C-50.01 28.55203125 -49.02 28.0415625 -48 27.515625 C-47.01 27.01546875 -46.02 26.5153125 -45 26 C-43.32899777 25.11228006 -41.66231456 24.21638354 -40 23.3125 C-39.11441406 22.83167969 -38.22882813 22.35085937 -37.31640625 21.85546875 C-34.57695514 20.32279587 -31.86186359 18.76028056 -29.15234375 17.17578125 C-28.29447266 16.67457764 -27.43660156 16.17337402 -26.55273438 15.65698242 C-24.82383028 14.64420486 -23.09721852 13.62750281 -21.37304688 12.60668945 C-20.57833984 12.14093506 -19.78363281 11.67518066 -18.96484375 11.1953125 C-18.2493335 10.77266113 -17.53382324 10.35000977 -16.79663086 9.91455078 C-15 9 -15 9 -13 9 C-13 8.34 -13 7.68 -13 7 C-12.14535156 6.57847656 -11.29070312 6.15695313 -10.41015625 5.72265625 C-9.30542969 5.17480469 -8.20070312 4.62695312 -7.0625 4.0625 C-5.96035156 3.51722656 -4.85820312 2.97195312 -3.72265625 2.41015625 C-1.15205586 1.25295022 -1.15205586 1.25295022 0 0 Z " fill="#C1C3C4" transform="translate(141,76)"/>
<path d="M0 0 C2.4375 1 2.4375 1 4 2 C4 2.66 4 3.32 4 4 C4.92232422 4.30744141 4.92232422 4.30744141 5.86328125 4.62109375 C10.93164062 6.31054688 10.93164062 6.31054688 16 8 C16 8.66 16 9.32 16 10 C16.66 10.2475 17.32 10.495 18 10.75 C23.05417513 12.85590631 27.86962987 15.33602501 32.60546875 18.07421875 C33.5802417 18.62505127 33.5802417 18.62505127 34.57470703 19.18701172 C35.87744576 19.92462232 37.17188789 20.6771273 38.45654297 21.44580078 C43.09707445 24.04688629 45.89788763 24.415061 51 23 C57.96442134 20.12566553 64.38800137 15.91065044 70.84570312 12.06640625 C85.70078601 3.33949833 85.70078601 3.33949833 93 3 C95.375 3.9375 95.375 3.9375 97 5 C92.25 9 92.25 9 90 9 C89.835 9.598125 89.67 10.19625 89.5 10.8125 C87.57434375 13.6207487 85.51822116 14.05415075 82.375 15.109375 C78.80544071 16.44795973 75.59045803 18.33078875 72.265625 20.18359375 C68.30074045 22.38894221 64.31265212 24.54694163 60.3125 26.6875 C59.6119751 27.06793457 58.9114502 27.44836914 58.18969727 27.84033203 C54.71656164 29.69512121 51.32858631 31.29006328 47.60546875 32.58203125 C43.79894626 33.68267004 43.79894626 33.68267004 42 37 C40.865625 36.39671875 39.73125 35.7934375 38.5625 35.171875 C37.0416933 34.36453317 35.52085846 33.55724434 34 32.75 C33.25621094 32.35425781 32.51242188 31.95851562 31.74609375 31.55078125 C28.09424936 29.61371596 24.43370422 27.70820777 20.7265625 25.87890625 C17.84486878 24.44803065 15.09829586 22.90565211 12.375 21.1875 C7.59642897 18.25028162 2.64925221 15.78987264 -2.44189453 13.44799805 C-3.99843291 12.70535156 -5.50452883 11.85901195 -7 11 C-7.33 10.01 -7.66 9.02 -8 8 C-10.97 7.505 -10.97 7.505 -14 7 C-14 14.26 -14 21.52 -14 29 C-14.33 29 -14.66 29 -15 29 C-15.23344349 25.29273774 -15.37476346 21.5873688 -15.5 17.875 C-15.56703125 16.82828125 -15.6340625 15.7815625 -15.703125 14.703125 C-15.89568146 7.09714488 -15.89568146 7.09714488 -13.31542969 3.93652344 C-8.92674911 0.51363664 -5.69627929 -0.87635066 0 0 Z " fill="#919396" transform="translate(34,106)"/>
<path d="M0 0 C1.32 0.33 2.64 0.66 4 1 C4 1.66 4 2.32 4 3 C5.134375 3.12375 6.26875 3.2475 7.4375 3.375 C8.613125 3.58125 9.78875 3.7875 11 4 C11.33 4.66 11.66 5.32 12 6 C10.35 6.66 8.7 7.32 7 8 C8.36840918 10.73681837 10.26991884 11.0580438 13.015625 12.12109375 C15.48316942 13.21400221 17.68526709 14.60798939 20 16 C23.10738131 17.7001752 26.24058909 19.35031005 29.375 21 C30.2 21.43828125 31.025 21.8765625 31.875 22.328125 C35.48046581 24.22814825 39.0620295 26.07483442 42.828125 27.63671875 C45.60166078 28.82879263 47.87444271 30.15025214 50.375 31.8125 C53.78462297 33.74094093 55.82125362 34.3162556 59.6875 33.5625 C63.6495438 32.34393326 66.60922336 30.39348939 70 28 C71.8631571 27.03917907 73.73984316 26.10440508 75.625 25.1875 C81.93700201 22.09477721 87.97317263 18.61182208 94 15 C92.04783565 13.04783565 90.46800047 12.15173355 88 11 C93.35830304 7.93607672 97.78764276 6.21058838 104 6 C104.99 6.66 105.98 7.32 107 8 C105.82348761 11.52953718 105.11622456 11.78736494 102 13.5625 C98.91497173 15.21374548 98.91497173 15.21374548 97 18 C96.34 18 95.68 18 95 18 C95.495 19.98 95.495 19.98 96 22 C94.4797598 22.91765002 92.95877255 23.83406243 91.4375 24.75 C90.59058594 25.26046875 89.74367188 25.7709375 88.87109375 26.296875 C85.60210443 28.23603057 82.30435892 30.12208866 79 32 C77.21722152 33.01587951 75.4347385 34.03227552 73.65234375 35.04882812 C72.4598718 35.72893026 71.26716034 36.4086126 70.07421875 37.08789062 C68.38043174 38.05443354 66.69013001 39.02707646 65 40 C64.06027344 40.46921875 63.12054688 40.9384375 62.15234375 41.421875 C59.79967802 42.84418319 59.79967802 42.84418319 59.07421875 45.48046875 C58.94660156 46.37378906 58.81898437 47.26710937 58.6875 48.1875 C58.54699219 49.08855469 58.40648438 49.98960938 58.26171875 50.91796875 C58.17535156 51.60503906 58.08898437 52.29210937 58 53 C55.32072659 48.98108988 55.84398752 46.75838077 56 42 C55.29834717 41.73445313 54.59669434 41.46890625 53.8737793 41.1953125 C50.80918509 39.92063293 47.94373135 38.44516286 45.01953125 36.875 C43.86332275 36.2552832 42.70711426 35.63556641 41.51586914 34.99707031 C40.28132102 34.33155037 39.04686637 33.665857 37.8125 33 C36.55008485 32.32122206 35.28763347 31.64251151 34.02514648 30.96386719 C9.34492751 17.67969098 9.34492751 17.67969098 2.33984375 13.359375 C-0.35731041 11.71663307 -0.35731041 11.71663307 -5 10 C-4.67 17.59 -4.34 25.18 -4 33 C-4.66 33 -5.32 33 -6 33 C-7.2639536 29.20813919 -7.18414402 25.6374828 -7.1875 21.6875 C-7.19974609 20.94048828 -7.21199219 20.19347656 -7.22460938 19.42382812 C-7.23647762 14.91785147 -6.89725897 11.17647436 -5 7 C-1.875 4.625 -1.875 4.625 1 3 C0.67 2.01 0.34 1.02 0 0 Z " fill="#CACCCD" transform="translate(24,67)"/>
<path d="M0 0 C1.32 0.33 2.64 0.66 4 1 C4.02887512 4.64581687 4.04675585 8.29160463 4.0625 11.9375 C4.07087891 12.97841797 4.07925781 14.01933594 4.08789062 15.09179688 C4.09111328 16.08115234 4.09433594 17.07050781 4.09765625 18.08984375 C4.10289307 19.00628662 4.10812988 19.92272949 4.11352539 20.86694336 C4 23 4 23 3 24 C0.90083974 24.17858965 -1.20622688 24.26798477 -3.3125 24.3125 C-5.03919922 24.36857422 -5.03919922 24.36857422 -6.80078125 24.42578125 C-10.56953943 23.92420049 -11.66982219 22.91703741 -14 20 C-14.45375 20.66 -14.9075 21.32 -15.375 22 C-18.86556349 24.65947695 -21.35462192 24.55824347 -25.6484375 24.40625 C-28 24 -28 24 -30.625 22 C-31.305625 21.01 -31.305625 21.01 -32 20 C-32.598125 20.66 -33.19625 21.32 -33.8125 22 C-38.43628218 24.90119666 -42.67492003 24.94348264 -48 24 C-51.41311667 21.47429367 -52.66637768 20.00086696 -54 16 C-54.36795288 11.03263608 -54.2446074 7.89352888 -51 4 C-46.93184911 1.16175519 -43.70153148 0.46442538 -38.90625 1.28515625 C-35.35051747 2.61855595 -33.97573498 4.81333068 -32 8 C-32.33 8.99 -32.66 9.98 -33 11 C-34.32 11 -35.64 11 -37 11 C-37 10.34 -37 9.68 -37 9 C-38.27875 8.835 -39.5575 8.67 -40.875 8.5 C-41.59429687 8.4071875 -42.31359375 8.314375 -43.0546875 8.21875 C-45.00498344 7.9627515 -45.00498344 7.9627515 -47 8 C-47.02689216 9.47906892 -47.04634621 10.95827483 -47.0625 12.4375 C-47.07410156 13.26121094 -47.08570313 14.08492187 -47.09765625 14.93359375 C-47.23267348 16.99163938 -47.23267348 16.99163938 -46 18 C-40.87709602 18.39406954 -38.25357858 17.79520878 -34 15 C-33.34 15.33 -32.68 15.66 -32 16 C-31.938125 14.906875 -31.87625 13.81375 -31.8125 12.6875 C-31 9 -31 9 -28.9375 7 C-25.02030025 5.66648519 -21.960913 5.88366752 -18 7 C-15.5 8.5625 -15.5 8.5625 -14 10 C-13.13375 9.34 -12.2675 8.68 -11.375 8 C-7.78576537 5.87304615 -6.07305202 5.61209028 -2 6 C-1.34 4.02 -0.68 2.04 0 0 Z M-25 11 C-26.87543354 14.86763446 -26.87543354 14.86763446 -26 19 C-23 20.33333333 -23 20.33333333 -20 19 C-19.06608997 17.18343185 -19.06608997 17.18343185 -19 15 C-19.85790183 12.78228936 -19.85790183 12.78228936 -21 11 C-22.32 11 -23.64 11 -25 11 Z M-7 11 C-7.38063221 13.3260857 -7.71269945 15.66055264 -8 18 C-6.93354885 19.29633621 -6.93354885 19.29633621 -4.4375 19.0625 C-3.633125 19.041875 -2.82875 19.02125 -2 19 C-1.32198966 16.09926819 -1.32198966 16.09926819 -1 13 C-1.66 12.34 -2.32 11.68 -3 11 C-4.32 11 -5.64 11 -7 11 Z " fill="#D5D5D5" transform="translate(463,114)"/>
<path d="M0 0 C0.495 0.309375 0.99 0.61875 1.5 0.9375 C2.015625 0.421875 2.53125 -0.09375 3.0625 -0.625 C6.54426568 -2.67834899 8.6631596 -2.03915028 12.5 -1.0625 C14.4375 0.125 14.4375 0.125 15.5 1.9375 C15.625 4.875 15.625 4.875 15.5 7.9375 C15.8403125 8.989375 15.8403125 8.989375 16.1875 10.0625 C16.5 11.9375 16.5 11.9375 15.4375 14.125 C12.81740451 16.57605707 11.05537501 16.795285 7.5 16.9375 C4.36643316 16.01167343 2.81531305 15.25281305 0.5 12.9375 C-0.49 14.4225 -0.49 14.4225 -1.5 15.9375 C-5.21106933 16.64437035 -8.77447777 16.51531364 -12.5 15.9375 C-15.1875 13.875 -15.1875 13.875 -16.5 10.9375 C-16.93672876 6.78857675 -17.04575791 3.37427318 -14.5 -0.0625 C-10.3290283 -3.43136176 -4.57075271 -1.9425699 0 0 Z M-9.5 2.9375 C-9.83 3.5975 -10.16 4.2575 -10.5 4.9375 C-8.52 4.9375 -6.54 4.9375 -4.5 4.9375 C-4.83 4.2775 -5.16 3.6175 -5.5 2.9375 C-6.82 2.9375 -8.14 2.9375 -9.5 2.9375 Z M7.5 2.9375 C7.5 3.5975 7.5 4.2575 7.5 4.9375 C8.49 4.6075 9.48 4.2775 10.5 3.9375 C9.51 3.6075 8.52 3.2775 7.5 2.9375 Z M1.5 6.9375 C1.17 7.9275 0.84 8.9175 0.5 9.9375 C1.82 9.2775 3.14 8.6175 4.5 7.9375 C3.51 7.6075 2.52 7.2775 1.5 6.9375 Z M-9.5 9.9375 C-5.5 10.9375 -5.5 10.9375 -5.5 10.9375 Z M6.5 9.9375 C7.985 10.9275 7.985 10.9275 9.5 11.9375 C9.5 11.2775 9.5 10.6175 9.5 9.9375 C8.51 9.9375 7.52 9.9375 6.5 9.9375 Z " fill="#E6E6E5" transform="translate(484.5,122.0625)"/>
<path d="M0 0 C2.53756106 1.1483853 4.6627117 2.45838431 7 4 C6.67 4.99 6.34 5.98 6 7 C3.67190457 7.68473395 1.33762223 8.34853151 -1 9 C-3.00684399 10.32300981 -5.00602794 11.65766875 -7 13 C-9.2745303 14.17948381 -11.56712132 15.32468099 -13.875 16.4375 C-18.46711446 18.68055276 -22.90578425 21.01236492 -27.15625 23.859375 C-29.68416852 25.4232568 -32.33569597 26.68220651 -35 28 C-37.57152026 29.33729976 -40.12983823 30.69891969 -42.6875 32.0625 C-43.35072266 32.41376953 -44.01394531 32.76503906 -44.69726562 33.12695312 C-47.55687392 34.65034969 -50.30169942 36.20113295 -53 38 C-55.6875 37.625 -55.6875 37.625 -58 37 C-58.625 35.125 -58.625 35.125 -59 33 C-57 31 -57 31 -53.3125 29.875 C-46.09816295 27.58639388 -39.59137261 23.65693054 -33 20 C-27.04709476 16.70034672 -21.19630908 13.50182296 -14.875 10.95703125 C-12.81024666 9.90314673 -11.57000351 8.68941223 -10 7 C-8.68036291 5.98199424 -7.34990354 4.97751635 -6 4 C-8.31 3.34 -10.62 2.68 -13 2 C-9.20578123 -2.12415084 -5.00523603 -1.27650315 0 0 Z " fill="#9D9F9F" transform="translate(136,107)"/>
<path d="M0 0 C2.34224255 1.85059258 3.38381648 3.39325239 5 6 C4.67 6.99 4.34 7.98 4 9 C2.68 9 1.36 9 0 9 C0 8.34 0 7.68 0 7 C-1.27875 6.835 -2.5575 6.67 -3.875 6.5 C-4.59429687 6.4071875 -5.31359375 6.314375 -6.0546875 6.21875 C-8.00498344 5.9627515 -8.00498344 5.9627515 -10 6 C-10.02689216 7.47906892 -10.04634621 8.95827483 -10.0625 10.4375 C-10.07410156 11.26121094 -10.08570313 12.08492187 -10.09765625 12.93359375 C-10.23267348 14.99163938 -10.23267348 14.99163938 -9 16 C-3.87709602 16.39406954 -1.25357858 15.79520878 3 13 C3.66 13.33 4.32 13.66 5 14 C5 12.35 5 10.7 5 9 C5.33 9 5.66 9 6 9 C6.103125 10.258125 6.20625 11.51625 6.3125 12.8125 C6.6388965 15.27135361 6.90152347 16.82493061 8.125 19 C11.13321657 20.60438217 13.6548347 20.28837632 17 20 C19.83378132 19.1025173 19.83378132 19.1025173 22 18 C22 18.66 22 19.32 22 20 C17.7863742 22.80908387 13.95250658 22.69707949 9 22 C6.375 20 6.375 20 5 18 C4.401875 18.66 3.80375 19.32 3.1875 20 C-1.43628218 22.90119666 -5.67492003 22.94348264 -11 22 C-14.41311667 19.47429367 -15.66637768 18.00086696 -17 14 C-17.36795288 9.03263608 -17.2446074 5.89352888 -14 2 C-9.42024217 -1.19517988 -5.22527102 -1.95947663 0 0 Z " fill="#D9D9D9" transform="translate(426,116)"/>
<path d="M0 0 C1.9375 1.1875 1.9375 1.1875 3 3 C3.125 5.9375 3.125 5.9375 3 9 C3.3403125 10.051875 3.3403125 10.051875 3.6875 11.125 C4 13 4 13 2.9375 15.1875 C0.31740451 17.63855707 -1.44462499 17.857785 -5 18 C-7.75 17.375 -7.75 17.375 -10 16 C-11.3125 13.375 -11.3125 13.375 -12 11 C-11.34 10.34 -10.68 9.68 -10 9 C-10.66 9 -11.32 9 -12 9 C-11.52 2.64 -11.52 2.64 -9.375 0 C-5.91616747 -1.45635054 -3.58701629 -0.91305869 0 0 Z M-5 4 C-5 4.66 -5 5.32 -5 6 C-4.01 5.67 -3.02 5.34 -2 5 C-2.99 4.67 -3.98 4.34 -5 4 Z M-6 11 C-4.515 11.99 -4.515 11.99 -3 13 C-3 12.34 -3 11.68 -3 11 C-3.99 11 -4.98 11 -6 11 Z " fill="#ECECEB" transform="translate(497,121)"/>
<path d="M0 0 C2.4375 1.5 2.4375 1.5 4 3 C2.7934375 3.433125 2.7934375 3.433125 1.5625 3.875 C-1.1326468 4.73262568 -1.1326468 4.73262568 -2 7 C-1.28070313 7.268125 -0.56140625 7.53625 0.1796875 7.8125 C3.01008058 9.00424446 5.50717835 10.39888584 8.125 12 C8.97320312 12.515625 9.82140625 13.03125 10.6953125 13.5625 C12.4830896 14.67758809 14.24684645 15.83123097 16 17 C12.71650285 19.1889981 11.80360552 19.43647932 8 19 C5.53515625 17.79296875 5.53515625 17.79296875 3.0625 16.1875 C-0.55937671 13.89743446 -4.13002112 11.83314789 -8 10 C-8 9.34 -8 8.68 -8 8 C-10.97 7.505 -10.97 7.505 -14 7 C-14 14.26 -14 21.52 -14 29 C-14.33 29 -14.66 29 -15 29 C-15.23344349 25.29273774 -15.37476346 21.5873688 -15.5 17.875 C-15.56703125 16.82828125 -15.6340625 15.7815625 -15.703125 14.703125 C-15.89571015 7.09601171 -15.89571015 7.09601171 -13.31542969 3.9387207 C-8.95390148 0.54053975 -5.66247572 -0.98004388 0 0 Z " fill="#9C9E9F" transform="translate(34,106)"/>
<path d="M0 0 C1.65 0 3.3 0 5 0 C5 0.66 5 1.32 5 2 C7.63904371 3.41377341 10.07120629 4.37240135 13 5 C13 5.66 13 6.32 13 7 C13.52078125 7.10183594 14.0415625 7.20367187 14.578125 7.30859375 C17.80814463 8.23071226 20.71141666 9.63436583 23.75 11.0625 C24.92046875 11.61035156 26.0909375 12.15820312 27.296875 12.72265625 C28.18890625 13.14417969 29.0809375 13.56570312 30 14 C30 14.66 30 15.32 30 16 C31.46015291 15.71758359 32.91809793 15.42373386 34.375 15.125 C35.59316406 14.88136719 35.59316406 14.88136719 36.8359375 14.6328125 C39.18673923 14.13341068 39.18673923 14.13341068 41 12 C45.59035904 9.83983104 50.10164532 8.29956349 55 7 C55 6.34 55 5.68 55 5 C58.3 4.01 61.6 3.02 65 2 C65 2.66 65 3.32 65 4 C64.51273437 4.268125 64.02546875 4.53625 63.5234375 4.8125 C58.57757373 7.54621379 53.65739125 10.32299204 48.75 13.125 C48.16009277 13.46144531 47.57018555 13.79789063 46.96240234 14.14453125 C45.30576199 15.09198535 43.65279351 16.04585109 42 17 C41.06285156 17.46792969 40.12570313 17.93585938 39.16015625 18.41796875 C36.8000367 19.84264336 36.8000367 19.84264336 36.07421875 22.48046875 C35.88279297 23.82044922 35.88279297 23.82044922 35.6875 25.1875 C35.54699219 26.08855469 35.40648437 26.98960938 35.26171875 27.91796875 C35.17535156 28.60503906 35.08898437 29.29210937 35 30 C32.32072659 25.98108988 32.84398752 23.75838077 33 19 C32.31139893 18.7417041 31.62279785 18.4834082 30.91333008 18.21728516 C27.6160946 16.8395917 24.53278218 15.2185767 21.38671875 13.5234375 C20.77230423 13.19332672 20.15788971 12.86321594 19.52485657 12.52310181 C17.57772172 11.47621913 15.63259208 10.42567234 13.6875 9.375 C12.36145923 8.66121471 11.03528866 7.94767051 9.70898438 7.234375 C6.47114968 5.49237028 3.23510197 3.74707555 0 2 C0 1.34 0 0.68 0 0 Z " fill="#E5E7E4" transform="translate(47,90)"/>
<path d="M0 0 C0.33 0 0.66 0 1 0 C1.74507544 6.37305598 2.10349817 12.58311325 2 19 C-2.55016945 20.10307138 -7.61781199 21.22951639 -11.9375 19 C-13.62451368 15.82444484 -13.51439141 12.48049254 -13 9 C-12.34 7.68 -11.68 6.36 -11 5 C-7.7 5 -4.4 5 -1 5 C-0.67 3.35 -0.34 1.7 0 0 Z M-8 8 C-8.38063221 10.3260857 -8.71269945 12.66055264 -9 15 C-7.93354885 16.29633621 -7.93354885 16.29633621 -5.4375 16.0625 C-4.633125 16.041875 -3.82875 16.02125 -3 16 C-2.32198966 13.09926819 -2.32198966 13.09926819 -2 10 C-2.66 9.34 -3.32 8.68 -4 8 C-5.32 8 -6.64 8 -8 8 Z " fill="#CACAC9" transform="translate(464,117)"/>
<path d="M0 0 C1.32 0.33 2.64 0.66 4 1 C4.02887512 4.64581687 4.04675585 8.29160463 4.0625 11.9375 C4.07087891 12.97841797 4.07925781 14.01933594 4.08789062 15.09179688 C4.09272461 16.57583008 4.09272461 16.57583008 4.09765625 18.08984375 C4.10551147 19.46450806 4.10551147 19.46450806 4.11352539 20.86694336 C4 23 4 23 3 24 C0.92176348 24.1790571 -1.16453717 24.26807871 -3.25 24.3125 C-4.38953125 24.34988281 -5.5290625 24.38726562 -6.703125 24.42578125 C-10.68374455 23.9116965 -12.27292548 22.9125557 -15 20 C-15.671875 17.7109375 -15.671875 17.7109375 -15.75 15.375 C-15.85996265 12.06027544 -15.85996265 12.06027544 -17 9 C-15.68 9 -14.36 9 -13 9 C-12.21625 8.505 -11.4325 8.01 -10.625 7.5 C-7.51671244 5.72383568 -5.52217994 5.75426652 -2 6 C-1.34 4.02 -0.68 2.04 0 0 Z M1 3 C0.67 4.65 0.34 6.3 0 8 C-3.3 8 -6.6 8 -10 8 C-12.39120141 12.78240283 -12.41582744 14.76057431 -12 20 C-11.10242444 22.14780077 -11.10242444 22.14780077 -9 23 C-4.82395272 23.30933684 -1.06301046 22.98497223 3 22 C3.10349817 15.58311325 2.74507544 9.37305598 2 3 C1.67 3 1.34 3 1 3 Z " fill="#EAEAE9" transform="translate(463,114)"/>
<path d="M0 0 C4.79143048 0.46071447 7.23197066 1.16032572 11 4 C13.06037185 4.94745078 15.14600637 5.84132865 17.25 6.6875 C18.32765625 7.12449219 19.4053125 7.56148437 20.515625 8.01171875 C21.33546875 8.33785156 22.1553125 8.66398437 23 9 C23 9.66 23 10.32 23 11 C23.78375 11.04125 24.5675 11.0825 25.375 11.125 C30.54333195 12.3725284 34.56693935 15.13515646 39 18 C38.505 19.485 38.505 19.485 38 21 C38.99 21 39.98 21 41 21 C41 21.66 41 22.32 41 23 C36.53784044 21.77290612 33.16846569 19.92145447 29.34765625 17.42578125 C25.64881633 15.1793976 21.74098581 13.37679669 17.83203125 11.52734375 C14.91424557 9.95375175 12.55828587 8.09589298 10 6 C7.3205355 4.75983331 7.3205355 4.75983331 5 4 C5 3.34 5 2.68 5 2 C3.35 1.67 1.7 1.34 0 1 C0 0.67 0 0.34 0 0 Z " fill="#DFDFDD" transform="translate(37,49)"/>
<path d="M0 0 C1.671875 1.52734375 1.671875 1.52734375 3 3 C-2 6 -2 6 -7 9 C-7.85207031 9.56074219 -8.70414063 10.12148437 -9.58203125 10.69921875 C-12 12 -12 12 -16 12 C-16 11.34 -16 10.68 -16 10 C-16.66 9.67 -17.32 9.34 -18 9 C-13.11639706 3.67243316 -7.75349474 -1.23351053 0 0 Z " fill="#86878C" transform="translate(116,79)"/>
<path d="M0 0 C2.4375 1.1875 2.4375 1.1875 4 3 C4 4.65 4 6.3 4 8 C0.37 8 -3.26 8 -7 8 C-7 7.67 -7 7.34 -7 7 C-4.03 7 -1.06 7 2 7 C1.67 6.01 1.34 5.02 1 4 C-1.3260857 3.61936779 -3.66055264 3.28730055 -6 3 C-7.96822886 4.96822886 -7.66248381 8.34808709 -8 11 C-1.91591528 11.19814261 -1.91591528 11.19814261 4 10 C4 10.99 4 11.98 4 13 C0.35969312 15.3297964 -2.75118727 15.3862557 -7 15 C-8.9375 14 -8.9375 14 -10 12 C-10.43478898 8.06228847 -10.25517019 4.76551058 -9 1 C-5.94306678 -0.52846661 -3.37015453 -0.23242445 0 0 Z " fill="#9D9D9B" transform="translate(480,122)"/>
<path d="M0 0 C0.66 1.32 1.32 2.64 2 4 C-0.64 3.34 -3.28 2.68 -6 2 C-5.67 2.99 -5.34 3.98 -5 5 C-3.845 5.45375 -2.69 5.9075 -1.5 6.375 C-0.345 6.91125 0.81 7.4475 2 8 C2.9375 10.6875 2.9375 10.6875 3 13 C-0.6441774 15.4294516 -2.71241272 15.16179575 -7 15 C-7.66 13.68 -8.32 12.36 -9 11 C-6.36 11.33 -3.72 11.66 -1 12 C-1 11.34 -1 10.68 -1 10 C-3.64 8.68 -6.28 7.36 -9 6 C-8.625 3.5625 -8.625 3.5625 -8 1 C-5.29120665 -0.35439668 -2.99066732 -0.06501451 0 0 Z " fill="#A6A6A5" transform="translate(496,122)"/>
<path d="M0 0 C0 1.32 0 2.64 0 4 C-3.85929145 6.57286097 -7.33214338 8 -12 8 C-12.66 7.34 -13.32 6.68 -14 6 C-15.31747324 5.30251417 -16.64914193 4.63040043 -18 4 C-16.75264433 3.3490741 -15.50198168 2.70448331 -14.25 2.0625 C-13.55390625 1.70285156 -12.8578125 1.34320313 -12.140625 0.97265625 C-7.69384521 -1.0478696 -4.80172071 -0.98217015 0 0 Z " fill="#AFB1B2" transform="translate(130,74)"/>
<path d="M0 0 C0.33 0 0.66 0 1 0 C1.103125 1.258125 1.20625 2.51625 1.3125 3.8125 C1.6388965 6.27135361 1.90152347 7.82493061 3.125 10 C6.13321657 11.60438217 8.6548347 11.28837632 12 11 C14.83378132 10.1025173 14.83378132 10.1025173 17 9 C17 9.66 17 10.32 17 11 C12.7863742 13.80908387 8.95250658 13.69707949 4 13 C1.375 11 1.375 11 0 9 C-0.598125 9.66 -1.19625 10.32 -1.8125 11 C-6.44161669 13.90454381 -10.67268974 13.33587245 -16 13 C-16.33 12.34 -16.66 11.68 -17 11 C-16.00419922 11.03480469 -16.00419922 11.03480469 -14.98828125 11.0703125 C-8.27138984 11.23624305 -8.27138984 11.23624305 -2 9 C-2 8.01 -2 7.02 -2 6 C-2.70125 6.66 -3.4025 7.32 -4.125 8 C-7.47680735 10.33169207 -9.00453212 10.52114798 -13 10 C-13.99 9.34 -14.98 8.68 -16 8 C-15.67 7.34 -15.34 6.68 -15 6 C-14.67 6.33 -14.34 6.66 -14 7 C-8.87709602 7.39406954 -6.25357858 6.79520878 -2 4 C-1.34 4.33 -0.68 4.66 0 5 C0 3.35 0 1.7 0 0 Z " fill="#E6E6E6" transform="translate(431,125)"/>
<path d="M0 0 C2.83535742 1.29953882 5.45060584 2.57542765 8 4.375 C8 6.375 8 6.375 6.6875 7.9375 C5 9.375 5 9.375 2 10.375 C0.30327614 9.08013179 -1.3603279 7.74139342 -3 6.375 C-5.6794645 5.13483331 -5.6794645 5.13483331 -8 4.375 C-8 3.715 -8 3.055 -8 2.375 C-5.05622739 -0.04928333 -3.79865744 -0.79138697 0 0 Z " fill="#B1B4B5" transform="translate(39,72.625)"/>
<path d="M0 0 C2.34224255 1.85059258 3.38381648 3.39325239 5 6 C4.67 6.99 4.34 7.98 4 9 C2.68 9 1.36 9 0 9 C-0.20367187 8.35546875 -0.40734375 7.7109375 -0.6171875 7.046875 C-1.8667935 4.68846128 -1.8667935 4.68846128 -4.8203125 4.390625 C-5.91085937 4.34421875 -7.00140625 4.2978125 -8.125 4.25 C-9.76855469 4.16492188 -9.76855469 4.16492188 -11.4453125 4.078125 C-12.28835938 4.05234375 -13.13140625 4.0265625 -14 4 C-14 3.34 -14 2.68 -14 2 C-9.19878086 -1.00076196 -5.33586301 -2.00094863 0 0 Z " fill="#BCBCBC" transform="translate(426,116)"/>
<path d="M0 0 C0.33 0.66 0.66 1.32 1 2 C-0.5506316 3.03877263 -2.11609681 4.05542555 -3.6875 5.0625 C-4.55761719 5.63097656 -5.42773438 6.19945313 -6.32421875 6.78515625 C-9 8 -9 8 -11.70703125 7.87109375 C-14 7 -14 7 -16 4 C-10.38388927 0.3196009 -6.64705605 -2.07720502 0 0 Z " fill="#7B7D7C" transform="translate(130,110)"/>
<path d="M0 0 C1.65 0 3.3 0 5 0 C5 0.66 5 1.32 5 2 C7.63904371 3.41377341 10.07120629 4.37240135 13 5 C13 5.66 13 6.32 13 7 C13.78310547 7.16048828 13.78310547 7.16048828 14.58203125 7.32421875 C17.75870986 8.21204654 20.67143581 9.47840666 23.6875 10.8125 C24.84636719 11.31394531 26.00523438 11.81539062 27.19921875 12.33203125 C30 14 30 14 30.89453125 16.19921875 C30.94673828 17.09060547 30.94673828 17.09060547 31 18 C27.45200268 16.65065513 24.16316238 15.08168742 20.83984375 13.25 C19.4022168 12.46109375 19.4022168 12.46109375 17.93554688 11.65625 C16.94619141 11.1096875 15.95683594 10.563125 14.9375 10 C12.96777332 8.91607513 10.99773343 7.83271918 9.02734375 6.75 C8.15843506 6.27046875 7.28952637 5.7909375 6.39428711 5.296875 C4.28222369 4.15286757 2.15568841 3.05895657 0 2 C0 1.34 0 0.68 0 0 Z " fill="#DCDFDC" transform="translate(47,90)"/>
<path d="M0 0 C0 0.66 0 1.32 0 2 C-14.22924901 10 -14.22924901 10 -18 10 C-18 10.66 -18 11.32 -18 12 C-19.32 12.33 -20.64 12.66 -22 13 C-22 13.66 -22 14.32 -22 15 C-23.32 15.33 -24.64 15.66 -26 16 C-22.89533224 8.23833059 -17.40703189 6.19937241 -10 3 C-8.89398438 2.48566406 -8.89398438 2.48566406 -7.765625 1.9609375 C-4.98585218 0.6898448 -3.09359145 0 0 0 Z " fill="#EDEEEA" transform="translate(120,51)"/>
<path d="M0 0 C1.32 0.33 2.64 0.66 4 1 C4.28780784 4.05076308 4.42075247 6.95763602 4 10 C1.19274249 12.80725751 -0.69390337 12.96833483 -4.625 13.375 C-8 13 -8 13 -9.9375 12 C-11.67278693 8.73357754 -11.17982715 5.65648548 -11 2 C-10.34 1.67 -9.68 1.34 -9 1 C-8.77213542 3.05078125 -8.54427083 5.1015625 -8.31640625 7.15234375 C-8.18113386 9.01140229 -8.18113386 9.01140229 -7 10 C-4.54190002 10.2500773 -4.54190002 10.2500773 -2 10 C0.18331689 8.23863645 0.18331689 8.23863645 0.1953125 6.0546875 C0.17210937 5.33539063 0.14890625 4.61609375 0.125 3.875 C0.08375 2.59625 0.0425 1.3175 0 0 Z " fill="#ADADAD" transform="translate(444,124)"/>
<path d="M0 0 C2.04049422 1.2704964 4.05017465 2.59431196 6 4 C5.67 5.32 5.34 6.64 5 8 C-0.62541841 7.54996653 -3.61487125 6.31558515 -8 3 C-7.67 2.01 -7.34 1.02 -7 0 C-4.21306667 -1.39346667 -2.97563827 -0.87916585 0 0 Z " fill="#818284" transform="translate(40,110)"/>
<path d="M0 0 C0.66 0.33 1.32 0.66 2 1 C-0.31 2.65 -2.62 4.3 -5 6 C-4.15115234 6.36738281 -4.15115234 6.36738281 -3.28515625 6.7421875 C2.54636801 9.71431761 2.54636801 9.71431761 3.75390625 13.13671875 C4.02241927 15.78348996 4.04763243 18.33991191 4 21 C4.03480469 22.05960938 4.06960937 23.11921875 4.10546875 24.2109375 C4.31683673 32.5247449 4.31683673 32.5247449 2 36 C1.67 28.08 1.34 20.16 1 12 C-3.455 10.02 -3.455 10.02 -8 8 C-7 4 -7 4 -5.44140625 2.69921875 C-3.65871658 1.73930893 -1.82979783 0.86674634 0 0 Z " fill="#EAECED" transform="translate(141,99)"/>
<path d="M0 0 C-3.70693315 2.1066405 -7.41579081 4.20986997 -11.125 6.3125 C-12.17171875 6.90740234 -13.2184375 7.50230469 -14.296875 8.11523438 C-15.31523438 8.69208984 -16.33359375 9.26894531 -17.3828125 9.86328125 C-18.31496582 10.39219971 -19.24711914 10.92111816 -20.20751953 11.46606445 C-28.49729253 16.01971402 -28.49729253 16.01971402 -32.1875 15.875 C-35.09554461 14.97027501 -36.00523965 14.17717206 -38 12 C-37.195625 12.26490234 -37.195625 12.26490234 -36.375 12.53515625 C-26.75892242 14.67030505 -19.80089993 8.88287841 -12 4 C-10.23746014 2.94436115 -8.46842266 1.89932153 -6.6875 0.875 C-6.03136719 0.48054687 -5.37523437 0.08609375 -4.69921875 -0.3203125 C-3 -1 -3 -1 0 0 Z " fill="#E0E1E2" transform="translate(112,153)"/>
<path d="M0 0 C0.99 0 1.98 0 3 0 C2.34 2.31 1.68 4.62 1 7 C5.29 7.33 9.58 7.66 14 8 C14.33 6.35 14.66 4.7 15 3 C15.66 2.67 16.32 2.34 17 2 C16.6875 4.875 16.6875 4.875 16 8 C12.2632157 10.49118953 10.25548181 10.2065226 5.8125 10.125 C4.54019531 10.10695312 3.26789063 10.08890625 1.95703125 10.0703125 C0.49330078 10.03550781 0.49330078 10.03550781 -1 10 C-1.99030231 5.87951136 -1.87125129 3.85257619 0 0 Z " fill="#F6F6F5" transform="translate(229,118)"/>
<path d="M0 0 C0.99 0.33 1.98 0.66 3 1 C2.67 2.32 2.34 3.64 2 5 C1.34 5 0.68 5 0 5 C-0.66 6.32 -1.32 7.64 -2 9 C-2.99 9 -3.98 9 -5 9 C-4.67 16.92 -4.34 24.84 -4 33 C-4.66 33 -5.32 33 -6 33 C-7.2639536 29.20813919 -7.18414402 25.6374828 -7.1875 21.6875 C-7.19974609 20.94048828 -7.21199219 20.19347656 -7.22460938 19.42382812 C-7.23647762 14.91785147 -6.89725897 11.17647436 -5 7 C-1.875 4.625 -1.875 4.625 1 3 C0.67 2.01 0.34 1.02 0 0 Z " fill="#F1F1F2" transform="translate(24,67)"/>
<path d="M0 0 C5.49152542 0.61016949 5.49152542 0.61016949 7.875 2.4375 C9 4 9 4 9 6 C7.52639196 6.81110281 6.034649 7.58937492 4.53515625 8.3515625 C1.50551937 10.30482633 0.21269543 11.21606143 -0.74267578 14.73730469 C-0.88564601 17.98923679 -0.78624357 21.1278497 -0.5625 24.375 C-0.52189453 25.49261719 -0.48128906 26.61023438 -0.43945312 27.76171875 C-0.33366198 30.51228857 -0.18606401 33.25388611 0 36 C-0.66 36 -1.32 36 -2 36 C-3.32667396 27.74513981 -3.77655584 19.20557723 -2 11 C0.28095165 8.08865876 2.62792938 6.47480082 6 5 C5.01 4.360625 4.02 3.72125 3 3.0625 C2.01 2.381875 1.02 1.70125 0 1 C0 0.67 0 0.34 0 0 Z " fill="#ECE8ED" transform="translate(20,100)"/>
<path d="M0 0 C0.33 0 0.66 0 1 0 C1.0825 1.0725 1.165 2.145 1.25 3.25 C2.06633334 7.3316667 2.58379277 8.69175187 6 11 C9.04253508 11.58345476 9.04253508 11.58345476 12 11 C13.7511573 9.5833253 13.7511573 9.5833253 15 8 C15.66 8 16.32 8 17 8 C17 8.99 17 9.98 17 11 C14.1214957 13.428738 11.62502163 14.24450821 7.9375 14.4375 C4 14 4 14 1.5625 12.125 C-1.24444505 8.30755474 -1.17172134 5.72233698 -1 1 C-0.67 0.67 -0.34 0.34 0 0 Z " fill="#B0B0B0" transform="translate(412,123)"/>
<path d="M0 0 C2.31 0.33 4.62 0.66 7 1 C7.33333333 3 7.66666667 5 8 7 C8.3403125 8.5778125 8.3403125 8.5778125 8.6875 10.1875 C9 13 9 13 7 16 C6.01 15.67 5.02 15.34 4 15 C4.66 14.67 5.32 14.34 6 14 C6.05167527 11.57732914 6.05167527 11.57732914 5 9 C1.52692672 7.13016255 1.52692672 7.13016255 -2 6 C-2 5.01 -2 4.02 -2 3 C1.71599191 2.79913557 2.77208445 2.8480563 6 5 C3.9927092 1.9890638 3.16115776 1.36983503 0 0 Z M0 4 C0 4.66 0 5.32 0 6 C0.99 5.67 1.98 5.34 3 5 C2.01 4.67 1.02 4.34 0 4 Z " fill="#E4E4E3" transform="translate(492,121)"/>
<path d="M0 0 C0.33 0 0.66 0 1 0 C1.08701039 3.60401481 1.14039388 7.20776012 1.1875 10.8125 C1.22520508 12.34874023 1.22520508 12.34874023 1.26367188 13.91601562 C1.27817383 15.39038086 1.27817383 15.39038086 1.29296875 16.89453125 C1.31653442 18.25348511 1.31653442 18.25348511 1.34057617 19.63989258 C0.93020072 22.4836915 0.23316708 23.2586122 -2 25 C-3.64605826 26.03357147 -5.30963442 27.04060332 -7 28 C-5.02 29.32 -3.04 30.64 -1 32 C-1.99 32.495 -1.99 32.495 -3 33 C-5.4750171 31.88568235 -7.67883419 30.41849022 -10 29 C-9.375 27.125 -9.375 27.125 -8 25 C-6.00827818 24.30899447 -4.00838196 23.64097297 -2 23 C-1.0699111 20.2097333 -0.81301231 18.23470458 -0.68359375 15.33203125 C-0.64169922 14.43935547 -0.59980469 13.54667969 -0.55664062 12.62695312 C-0.51732422 11.69818359 -0.47800781 10.76941406 -0.4375 9.8125 C-0.39431641 8.87212891 -0.35113281 7.93175781 -0.30664062 6.96289062 C-0.20061335 4.64207146 -0.09854971 2.32114675 0 0 Z " fill="#F0F1F2" transform="translate(143,41)"/>
<path d="M0 0 C3.875 1.75 3.875 1.75 5 4 C5.43259736 8.70033673 5.54186317 12.76849279 3.625 17.125 C3.08875 17.74375 2.5525 18.3625 2 19 C1.34 19 0.68 19 0 19 C0.165 18.34 0.33 17.68 0.5 17 C1.46820325 11.19078047 1.14961613 5.74808065 0 0 Z " fill="#F4F4F3" transform="translate(397,81)"/>
<path d="M0 0 C4.61513112 1.31860889 8.09897612 3.21355437 12 6 C11.67 6.99 11.34 7.98 11 9 C11.99 9 12.98 9 14 9 C14 9.66 14 10.32 14 11 C8.19657726 9.51194289 3.82409121 6.40902445 -1 3 C-0.67 2.01 -0.34 1.02 0 0 Z " fill="#E5E5E3" transform="translate(64,61)"/>
<path d="M0 0 C0.66 0.33 1.32 0.66 2 1 C0.625 3 0.625 3 -1 5 C-1.66 5 -2.32 5 -3 5 C-2.67 5.99 -2.34 6.98 -2 8 C-9.42857143 10.42857143 -9.42857143 10.42857143 -13 9 C-13 8.34 -13 7.68 -13 7 C-9.04859514 4.6756442 -5.28935875 2.64004894 -1 1 C-0.67 0.67 -0.34 0.34 0 0 Z " fill="#C9CBCB" transform="translate(122,80)"/>
<path d="M0 0 C3.625 0.375 3.625 0.375 7 1 C7.12375 1.61875 7.2475 2.2375 7.375 2.875 C7.87197356 5.19120832 7.87197356 5.19120832 10 7 C6.37 7 2.74 7 -1 7 C-1.33 7.66 -1.66 8.32 -2 9 C-2.125 5.625 -2.125 5.625 -2 2 C-1.34 1.34 -0.68 0.68 0 0 Z M1 1 C0.67 1.66 0.34 2.32 0 3 C1.98 3 3.96 3 6 3 C5.67 2.34 5.34 1.68 5 1 C3.68 1 2.36 1 1 1 Z " fill="#CECECD" transform="translate(474,124)"/>
<path d="M0 0 C4.62 0 9.24 0 14 0 C13.8185742 4.53564509 13.219977 7.21856359 10.0625 10.4375 C7 13 7 13 5 13 C6.09158553 10.73286083 7.25103508 8.58830248 8.5625 6.4375 C10.11858764 3.99345222 10.11858764 3.99345222 11 1 C7.37 1 3.74 1 0 1 C0 0.67 0 0.34 0 0 Z " fill="#F2F2F1" transform="translate(334,91)"/>
<path d="M0 0 C0.99 0.33 1.98 0.66 3 1 C4.32912032 6.43731041 4.32912032 6.43731041 3.03125 8.65625 C-0.1275212 10.74589864 -3.51297133 10.57517816 -7.1875 10.6875 C-7.93708984 10.72166016 -8.68667969 10.75582031 -9.45898438 10.79101562 C-11.30546838 10.87334294 -13.15270994 10.93835281 -15 11 C-14.67 10.01 -14.34 9.02 -14 8 C-9.38 8 -4.76 8 0 8 C0 5.36 0 2.72 0 0 Z " fill="#EFF0ED" transform="translate(200,62)"/>
<path d="M0 0 C0 0.66 0 1.32 0 2 C-1.0725 2.12375 -2.145 2.2475 -3.25 2.375 C-6.37863615 2.89643936 -8.33480424 3.40088254 -11 5 C-11 5.66 -11 6.32 -11 7 C-9.68 7.33 -8.36 7.66 -7 8 C-8 9 -8 9 -10.5625 9.0625 C-11.366875 9.041875 -12.17125 9.02125 -13 9 C-13.36585366 4.48780488 -13.36585366 4.48780488 -11.6875 2.25 C-8.01357705 -0.47142441 -4.3905492 -0.08284055 0 0 Z " fill="#F1F1F0" transform="translate(330,71)"/>
<path d="M0 0 C0.66 0.33 1.32 0.66 2 1 C2 1.66 2 2.32 2 3 C2.33 3.99 2.66 4.98 3 6 C0 8 0 8 -4 8 C-4 7.34 -4 6.68 -4 6 C-4.99 5.67 -5.98 5.34 -7 5 C-6.01 4.67 -5.02 4.34 -4 4 C-4 3.34 -4 2.68 -4 2 C-2.125 0.9375 -2.125 0.9375 0 0 Z " fill="#919397" transform="translate(98,86)"/>
<path d="M0 0 C0.99 0.33 1.98 0.66 3 1 C-2.12181749 5.17832479 -6.47603393 5.74213573 -13 6 C-10.875 3.5 -10.875 3.5 -8 1 C-4.8125 0.75 -4.8125 0.75 -2 1 C-1.34 0.67 -0.68 0.34 0 0 Z " fill="#D8D9D8" transform="translate(117,88)"/>
<path d="M0 0 C0.66 0.33 1.32 0.66 2 1 C1.67 6.94 1.34 12.88 1 19 C0.67 19 0.34 19 0 19 C-0.66 13.06 -1.32 7.12 -2 1 C-1.34 0.67 -0.68 0.34 0 0 Z " fill="#E8E9E7" transform="translate(81,72)"/>
<path d="M0 0 C0.66 0.66 1.32 1.32 2 2 C-0.31 4.64 -2.62 7.28 -5 10 C-5.99 9.67 -6.98 9.34 -8 9 C-9.1875 6.4375 -9.1875 6.4375 -10 4 C-8.9171875 4.4021875 -8.9171875 4.4021875 -7.8125 4.8125 C-4.73609463 5.34894155 -4.73609463 5.34894155 -2.1875 2.5625 C-1.465625 1.716875 -0.74375 0.87125 0 0 Z " fill="#F4F4F3" transform="translate(482,64)"/>
<path d="M0 0 C2.35612142 1.83744364 3.38300556 3.39194444 5 6 C4.67 6.99 4.34 7.98 4 9 C2.68 9 1.36 9 0 9 C0 8.34 0 7.68 0 7 C0.99 7 1.98 7 3 7 C1.34197245 4.78929659 0.30185808 3.44182319 -2 2 C-5.37425965 1.56211898 -8.61677147 1.70437809 -12 2 C-9.76631368 -2.46737264 -4.10221231 -1.31430103 0 0 Z " fill="#F1F1F1" transform="translate(426,116)"/>
<path d="M0 0 C1.32 0 2.64 0 4 0 C3.34 3.96 2.68 7.92 2 12 C0.35 12 -1.3 12 -3 12 C-3 11.34 -3 10.68 -3 10 C-2.34 9.67 -1.68 9.34 -1 9 C-0.53348793 6.87423218 -0.53348793 6.87423218 -0.375 4.4375 C-0.30023438 3.61121094 -0.22546875 2.78492188 -0.1484375 1.93359375 C-0.09945313 1.29550781 -0.05046875 0.65742187 0 0 Z " fill="#F5F5F4" transform="translate(275,50)"/>
<path d="M0 0 C0.99 0 1.98 0 3 0 C3 3.63 3 7.26 3 11 C2.67 11 2.34 11 2 11 C1.67 9.35 1.34 7.7 1 6 C0.01 6.33 -0.98 6.66 -2 7 C-4.04296875 6.87890625 -4.04296875 6.87890625 -6.1875 6.5625 C-7.445625 6.376875 -8.70375 6.19125 -10 6 C-8 4 -8 4 -4.375 3.875 C-2.704375 3.936875 -2.704375 3.936875 -1 4 C-0.67 2.68 -0.34 1.36 0 0 Z " fill="#D1D1D0" transform="translate(463,116)"/>
<path d="M0 0 C4.95 0.33 9.9 0.66 15 1 C15 1.99 15 2.98 15 4 C10.05 3.67 5.1 3.34 0 3 C0 2.01 0 1.02 0 0 Z " fill="#EEEEEC" transform="translate(186,92)"/>
<path d="M0 0 C1.65 0 3.3 0 5 0 C5 0.66 5 1.32 5 2 C7.63904371 3.41377341 10.07120629 4.37240135 13 5 C13 5.99 13 6.98 13 8 C8.1725201 6.58707905 4.2837641 4.57025846 0 2 C0 1.34 0 0.68 0 0 Z " fill="#D3D4D3" transform="translate(47,90)"/>
<path d="M0 0 C0.66 0.33 1.32 0.66 2 1 C-0.31 2.65 -2.62 4.3 -5 6 C-3.7625 6.680625 -3.7625 6.680625 -2.5 7.375 C-1.675 7.91125 -0.85 8.4475 0 9 C0 9.66 0 10.32 0 11 C-0.763125 10.690625 -1.52625 10.38125 -2.3125 10.0625 C-4.18789677 9.32106407 -6.08684652 8.63771783 -8 8 C-7.9375 6.25 -7.9375 6.25 -7 4 C-4.74876994 2.27481113 -2.59865097 1.23093993 0 0 Z " fill="#E4E6E8" transform="translate(141,99)"/>
<path d="M0 0 C0.66 0.33 1.32 0.66 2 1 C-0.21928194 3.90802461 -1.92969143 5.95312762 -5 8 C-7.6875 7.625 -7.6875 7.625 -10 7 C-7.01767477 3.67356033 -4.13629913 1.70847138 0 0 Z " fill="#C3C5C7" transform="translate(107,88)"/>
<path d="M0 0 C0.66 0 1.32 0 2 0 C1.4346089 3.50695293 0.31277274 5.02732613 -2.375 7.3125 C-2.98085938 7.84488281 -3.58671875 8.37726563 -4.2109375 8.92578125 C-4.80132812 9.28027344 -5.39171875 9.63476562 -6 10 C-6.99 9.67 -7.98 9.34 -9 9 C-8.01 8.67 -7.02 8.34 -6 8 C-6 7.01 -6 6.02 -6 5 C-4.36368108 3.95107762 -2.69514137 2.95093297 -1 2 C-0.67 1.34 -0.34 0.68 0 0 Z " fill="#F3F3F1" transform="translate(446,96)"/>
<path d="M0 0 C0.66 0 1.32 0 2 0 C1.938125 1.2375 1.87625 2.475 1.8125 3.75 C1.79637174 6.78211302 1.89348977 7.82248296 3.5 10.5 C3.995 10.995 4.49 11.49 5 12 C0.125 11.125 0.125 11.125 -1 10 C-1.23880597 2.47761194 -1.23880597 2.47761194 0 0 Z " fill="#A0A0A0" transform="translate(452,124)"/>
<path d="M0 0 C0.99 0.33 1.98 0.66 3 1 C3.17615457 4.87540045 3.28341107 7.75515269 1 11 C0.01 11.33 -0.98 11.66 -2 12 C-1.34 8.04 -0.68 4.08 0 0 Z " fill="#F3F3F2" transform="translate(235,100)"/>
<path d="M0 0 C0.99 0 1.98 0 3 0 C3 0.99 3 1.98 3 3 C-0.63423209 5.32590854 -3.77088331 5.16265833 -8 5 C-8 4.01 -8 3.02 -8 2 C-5.53925394 0.76962697 -3.7202437 1 -1 1 C-0.67 0.67 -0.34 0.34 0 0 Z " fill="#B6B6B6" transform="translate(481,132)"/>
<path d="M0 0 C0.66 0 1.32 0 2 0 C2 2.97 2 5.94 2 9 C4.475 9.99 4.475 9.99 7 11 C7 11.33 7 11.66 7 12 C4.125 12.125 4.125 12.125 1 12 C-1 10 -1 10 -1.23046875 8.125 C-1.21628906 7.42375 -1.20210938 6.7225 -1.1875 6 C-1.18105469 5.29875 -1.17460937 4.5975 -1.16796875 3.875 C-1 2 -1 2 0 0 Z " fill="#9B9B9A" transform="translate(471,124)"/>
<path d="M0 0 C1.91015625 0.23046875 1.91015625 0.23046875 3.91015625 2.23046875 C1.04838568 3.66135403 -1.02360148 2.83038572 -4.08984375 2.23046875 C-4.41984375 4.87046875 -4.74984375 7.51046875 -5.08984375 10.23046875 C-5.41984375 10.23046875 -5.74984375 10.23046875 -6.08984375 10.23046875 C-6.21484375 4.48046875 -6.21484375 4.48046875 -5.08984375 2.23046875 C-5.74984375 1.90046875 -6.40984375 1.57046875 -7.08984375 1.23046875 C-5.19495423 -0.66442077 -2.51845229 0.05027763 0 0 Z " fill="#B6B6B5" transform="translate(459.08984375,121.76953125)"/>
<path d="M0 0 C0.86625 0.3403125 0.86625 0.3403125 1.75 0.6875 C-1.57307692 5.4875 -1.57307692 5.4875 -5 6.5 C-5.7425 6.561875 -6.485 6.62375 -7.25 6.6875 C-6.87492618 3.96821483 -6.40781339 2.84531339 -4.4375 0.875 C-2.25 -0.3125 -2.25 -0.3125 0 0 Z " fill="#F5F5F3" transform="translate(416.25,62.3125)"/>
<path d="M0 0 C0.33 0 0.66 0 1 0 C1.185625 1.5778125 1.185625 1.5778125 1.375 3.1875 C1.91140782 6.45958771 2.63880035 9.00536076 4 12 C0.125 10.25 0.125 10.25 -1 8 C-1.125 4.4375 -1.125 4.4375 -1 1 C-0.67 0.67 -0.34 0.34 0 0 Z " fill="#9F9F9F" transform="translate(412,123)"/>
<path d="M0 0 C0.625 1.8125 0.625 1.8125 1 4 C0.01 5.485 0.01 5.485 -1 7 C-3.62697064 7.22137393 -6.00893964 7.28162025 -8.625 7.1875 C-9.33140625 7.17396484 -10.0378125 7.16042969 -10.765625 7.14648438 C-12.51074128 7.1111104 -14.25546608 7.05730221 -16 7 C-16 6.67 -16 6.34 -16 6 C-11.38 6 -6.76 6 -2 6 C-1.67 4.35 -1.34 2.7 -1 1 C-0.67 0.67 -0.34 0.34 0 0 Z " fill="#E7E7E5" transform="translate(245,120)"/>
<path d="M0 0 C0.98726527 2.66561622 1.0275526 3.90126985 0.25 6.6875 C-1 9 -1 9 -4 10 C-3.51421457 6.87709365 -3.0013988 4.00419641 -2 1 C-1.34 0.67 -0.68 0.34 0 0 Z " fill="#F4F4F1" transform="translate(260,84)"/>
<path d="M0 0 C0.33 0.66 0.66 1.32 1 2 C-0.41377782 2.36552803 -1.83120576 2.71695495 -3.25 3.0625 C-4.03890625 3.25972656 -4.8278125 3.45695312 -5.640625 3.66015625 C-8.10394822 4.01497267 -9.65604132 3.76877544 -12 3 C-8.2391768 -0.7608232 -5.0273023 -0.25136512 0 0 Z " fill="#EDEDEB" transform="translate(431,72)"/>
<path d="M0 0 C1.25541557 3.76624671 0.37061958 5.37188934 -1 9 C-1.99 9 -2.98 9 -4 9 C-3.6875 5.625 -3.6875 5.625 -3 2 C-2.01 1.34 -1.02 0.68 0 0 Z " fill="#F3F3F1" transform="translate(255,62)"/>
<path d="M0 0 C1.43861294 0.08746284 2.87597508 0.19565348 4.3125 0.3125 C5.11300781 0.37050781 5.91351563 0.42851562 6.73828125 0.48828125 C9.39066259 1.08838825 10.36503879 1.85708967 12 4 C12 4.66 12 5.32 12 6 C7.76570244 4.68938409 3.92592596 3.05643741 0 1 C0 0.67 0 0.34 0 0 Z " fill="#C9CBCD" transform="translate(38,146)"/>
<path d="M0 0 C0.66 0 1.32 0 2 0 C2.66 1.98 3.32 3.96 4 6 C4.66 6 5.32 6 6 6 C6 6.99 6 7.98 6 9 C4.68 9 3.36 9 2 9 C2 7.02 2 5.04 2 3 C1.01 2.67 0.02 2.34 -1 2 C-0.67 1.34 -0.34 0.68 0 0 Z " fill="#EDEDEB" transform="translate(241,80)"/>
<path d="M0 0 C4.16138263 -0.08159574 7.9472484 0.01751476 12 1 C12 1.33 12 1.66 12 2 C5.565 2.495 5.565 2.495 -1 3 C-0.67 2.01 -0.34 1.02 0 0 Z " fill="#F2F2F2" transform="translate(484,60)"/>
<path d="M0 0 C0.33 0 0.66 0 1 0 C1.1953125 1.98567708 1.390625 3.97135417 1.5859375 5.95703125 C1.92665391 8.29988142 1.92665391 8.29988142 4 11 C0.125 10.125 0.125 10.125 -1 9 C-1.1328125 7.1875 -1.1328125 7.1875 -1.125 5 C-1.12757813 4.278125 -1.13015625 3.55625 -1.1328125 2.8125 C-1 1 -1 1 0 0 Z " fill="#9C9C9C" transform="translate(434,125)"/>
<path d="M0 0 C0.33 0 0.66 0 1 0 C1 5.61 1 11.22 1 17 C0.67 17 0.34 17 0 17 C-0.144375 15.906875 -0.28875 14.81375 -0.4375 13.6875 C-0.88288104 10.06877013 -0.88288104 10.06877013 -2 7 C-1.40206327 4.64811553 -0.74118205 2.31074405 0 0 Z " fill="#979796" transform="translate(464,117)"/>
<path d="M0 0 C0 0.66 0 1.32 0 2 C-2.8125 4.1875 -2.8125 4.1875 -6 6 C-6.99 5.67 -7.98 5.34 -9 5 C-9.33 4.34 -9.66 3.68 -10 3 C-8.70990357 2.49596232 -7.41786211 1.99690074 -6.125 1.5 C-5.04605469 1.08234375 -5.04605469 1.08234375 -3.9453125 0.65625 C-2 0 -2 0 0 0 Z " fill="#DDDFDD" transform="translate(112,92)"/>
<path d="M0 0 C0.33 0 0.66 0 1 0 C1 2.97 1 5.94 1 9 C0.01 9.33 -0.98 9.66 -2 10 C-2 8.68 -2 7.36 -2 6 C-2.99 5.67 -3.98 5.34 -5 5 C-4.01 4.67 -3.02 4.34 -2 4 C-1.34 4.33 -0.68 4.66 0 5 C0 3.35 0 1.7 0 0 Z " fill="#F2F2F2" transform="translate(431,125)"/>
<path d="M0 0 C0.66 0.66 1.32 1.32 2 2 C-1.24221555 3.08073852 -3.60402937 3.21676408 -7 3 C-7.66 2.34 -8.32 1.68 -9 1 C-5.98675805 -0.50662097 -3.31713623 -0.17770373 0 0 Z " fill="#ACACAC" transform="translate(480,122)"/>
<path d="M0 0 C0.99 0.66 1.98 1.32 3 2 C1.75 3.5625 1.75 3.5625 0 5 C-2.1875 4.6875 -2.1875 4.6875 -4 4 C-2.68 2.68 -1.36 1.36 0 0 Z M3 0 C5 1 5 1 5 1 Z " fill="#CFD1D1" transform="translate(108,89)"/>
<path d="M0 0 C0.66 0 1.32 0 2 0 C1.625 2.4375 1.625 2.4375 1 5 C-1.70879335 6.35439668 -4.00933268 6.06501451 -7 6 C-4 4 -4 4 -1 3 C-0.67 2.01 -0.34 1.02 0 0 Z " fill="#F2F2F2" transform="translate(394,100)"/>
<path d="M0 0 C0.66 0.33 1.32 0.66 2 1 C0.35 2.65 -1.3 4.3 -3 6 C-4.32 5.34 -5.64 4.68 -7 4 C-6.030625 3.525625 -5.06125 3.05125 -4.0625 2.5625 C-1.19522563 1.29806053 -1.19522563 1.29806053 0 0 Z " fill="#BEC0C3" transform="translate(122,80)"/>
<path d="M0 0 C2.475 0.495 2.475 0.495 5 1 C5 1.99 5 2.98 5 4 C3.68 4.33 2.36 4.66 1 5 C0.67 3.35 0.34 1.7 0 0 Z " fill="#77797F" transform="translate(113,79)"/>
<path d="M0 0 C0.99 0.33 1.98 0.66 3 1 C2.67 2.65 2.34 4.3 2 6 C1.01 6 0.02 6 -1 6 C-0.67 4.02 -0.34 2.04 0 0 Z " fill="#A1A1A1" transform="translate(496,130)"/>
<path d="M0 0 C2.15377564 2.62198774 3.40072174 4.64404172 4 8 C2.68 7.67 1.36 7.34 0 7 C0 4.69 0 2.38 0 0 Z " fill="#F0F0EC" transform="translate(303,88)"/>
<path d="M0 0 C0.99 0.33 1.98 0.66 3 1 C3 1.66 3 2.32 3 3 C3.66 3.33 4.32 3.66 5 4 C4.01 4.99 3.02 5.98 2 7 C0.68 6.34 -0.64 5.68 -2 5 C-1.01 4.67 -0.02 4.34 1 4 C0.67 2.68 0.34 1.36 0 0 Z " fill="#EFEFEF" transform="translate(331,73)"/>
<path d="" fill="#FFFFFF" transform="translate(0,0)"/>
<path d="" fill="#FFFFFF" transform="translate(0,0)"/>
<path d="" fill="#FFFFFF" transform="translate(0,0)"/>
<path d="" fill="#FFFFFF" transform="translate(0,0)"/>
<path d="" fill="#FFFFFF" transform="translate(0,0)"/>
<path d="" fill="#FFFFFF" transform="translate(0,0)"/>
<path d="" fill="#FFFFFF" transform="translate(0,0)"/>
<path d="" fill="#FFFFFF" transform="translate(0,0)"/>
<path d="" fill="#FFFFFF" transform="translate(0,0)"/>
<path d="" fill="#FFFFFF" transform="translate(0,0)"/>
<path d="" fill="#FFFFFF" transform="translate(0,0)"/>
<path d="" fill="#FFFFFF" transform="translate(0,0)"/>
<path d="" fill="#FFFFFF" transform="translate(0,0)"/>
<path d="" fill="#FFFFFF" transform="translate(0,0)"/>
<path d="" fill="#FFFFFF" transform="translate(0,0)"/>
<path d="" fill="#FFFFFF" transform="translate(0,0)"/>
<path d="" fill="#FFFFFF" transform="translate(0,0)"/>
<path d="" fill="#FFFFFF" transform="translate(0,0)"/>
<path d="" fill="#FFFFFF" transform="translate(0,0)"/>
<path d="" fill="#FFFFFF" transform="translate(0,0)"/>
<path d="" fill="#FFFFFF" transform="translate(0,0)"/>
<path d="" fill="#FFFFFF" transform="translate(0,0)"/>
<path d="" fill="#FFFFFF" transform="translate(0,0)"/>
<path d="" fill="#FFFFFF" transform="translate(0,0)"/>
<path d="" fill="#FFFFFF" transform="translate(0,0)"/>
<path d="" fill="#FFFFFF" transform="translate(0,0)"/>
<path d="" fill="#FFFFFF" transform="translate(0,0)"/>
<path d="" fill="#FFFFFF" transform="translate(0,0)"/>
<path d="" fill="#FFFFFF" transform="translate(0,0)"/>
<path d="" fill="#FFFFFF" transform="translate(0,0)"/>
<path d="" fill="#FFFFFF" transform="translate(0,0)"/>
<path d="" fill="#FFFFFF" transform="translate(0,0)"/>
<path d="" fill="#FFFFFF" transform="translate(0,0)"/>
<path d="" fill="#FFFFFF" transform="translate(0,0)"/>
<path d="" fill="#FFFFFF" transform="translate(0,0)"/>
<path d="" fill="#FFFFFF" transform="translate(0,0)"/>
<path d="" fill="#FFFFFF" transform="translate(0,0)"/>
<path d="" fill="#FFFFFF" transform="translate(0,0)"/>
<path d="" fill="#FFFFFF" transform="translate(0,0)"/>
<path d="" fill="#FFFFFF" transform="translate(0,0)"/>
<path d="" fill="#FFFFFF" transform="translate(0,0)"/>
<path d="" fill="#FFFFFF" transform="translate(0,0)"/>
<path d="" fill="#FFFFFF" transform="translate(0,0)"/>
<path d="" fill="#FFFFFF" transform="translate(0,0)"/>
<path d="" fill="#FFFFFF" transform="translate(0,0)"/>
<path d="" fill="#FFFFFF" transform="translate(0,0)"/>
<path d="" fill="#FFFFFF" transform="translate(0,0)"/>
<path d="" fill="#FFFFFF" transform="translate(0,0)"/>
<path d="" fill="#FFFFFF" transform="translate(0,0)"/>
<path d="" fill="#FFFFFF" transform="translate(0,0)"/>
<path d="" fill="#FFFFFF" transform="translate(0,0)"/>
<path d="" fill="#FFFFFF" transform="translate(0,0)"/>
<path d="" fill="#FFFFFF" transform="translate(0,0)"/>
<path d="" fill="#FFFFFF" transform="translate(0,0)"/>
</svg>
