<?xml version="1.0" encoding="UTF-8"?>
<svg version="1.1" xmlns="http://www.w3.org/2000/svg" width="295" height="278">
<path d="M0 0 C2.59016331 1.16246981 4.93224716 2.34007437 7.375 3.75 C8.70539874 4.48887652 10.03612476 5.22716407 11.3671875 5.96484375 C11.9972168 6.3191748 12.62724609 6.67350586 13.27636719 7.03857422 C18.08330677 9.71983882 23.03313252 12.01804647 28.0949707 14.17446899 C31.2897641 15.55891017 34.44085901 17.03485265 37.59375 18.51171875 C38.30293579 18.84363724 39.01212158 19.17555573 39.74279785 19.51753235 C41.2390062 20.21861078 42.73489164 20.92037873 44.23046875 21.62280273 C46.46445078 22.67082292 48.70092299 23.71339123 50.9375 24.75585938 C58.19460071 28.15346369 65.38701824 31.64311489 72.46875 35.39453125 C73.09986694 35.72716476 73.73098389 36.05979828 74.38122559 36.4025116 C76.90725161 37.75994135 78.96013504 38.96013504 81 41 C82.5334685 46.71016866 82.3011998 52.62952959 82.375 58.5 C82.43107422 60.19189453 82.43107422 60.19189453 82.48828125 61.91796875 C82.57643485 70.19461212 82.57643485 70.19461212 79.77734375 74.10546875 C77.28389519 75.80634435 74.86228993 77.41522168 72.1875 78.8125 C71.00220703 79.44091797 71.00220703 79.44091797 69.79296875 80.08203125 C68.90544922 80.53642578 68.90544922 80.53642578 68 81 C69.41468311 81.96125903 70.8318364 82.91888325 72.25 83.875 C73.03890625 84.40867187 73.8278125 84.94234375 74.640625 85.4921875 C76.89618908 87.05278883 76.89618908 87.05278883 79.234375 87.8203125 C81 89 81 89 81.7421875 91.64453125 C82.18772777 97.44330537 82.14504667 103.2181714 82.02832031 109.02734375 C82.0030306 110.7889029 82.02560612 112.55099937 82.0546875 114.3125 C81.92649316 121.05185981 81.92649316 121.05185981 79.328125 123.7109375 C75.77640242 126.02089241 71.93065181 127.45156141 68 129 C67.67 129.66 67.34 130.32 67 131 C67.825 131.2475 68.65 131.495 69.5 131.75 C73.46840526 133.16728759 77.23097419 135.1154871 81 137 C81 148.22 81 159.44 81 171 C77.04 172.98 73.08 174.96 69 177 C66.31634625 178.45233026 63.6328741 179.90513033 60.9609375 181.37890625 C58.21909258 182.88004826 55.46269473 184.35099181 52.69995117 185.81323242 C46.02633098 189.34642702 39.42350242 192.98797956 32.85205078 196.70751953 C27.62360554 199.66250533 22.35326179 202.53170692 17.0546875 205.359375 C13.05924942 207.50526246 9.10022174 209.71539542 5.14453125 211.93359375 C3 213 3 213 1 213 C0.67 213.66 0.34 214.32 0 215 C-7.27220671 215.96962756 -11.89813737 212.64547178 -18 209 C-20.10174302 207.78745595 -22.20607463 206.57939154 -24.3125 205.375 C-25.16328125 204.88592163 -25.16328125 204.88592163 -26.03125 204.38696289 C-37.51966184 197.80659452 -49.20420096 191.56211841 -60.875 185.3125 C-64.32766459 183.46318361 -67.75680685 181.57978177 -71.1640625 179.6484375 C-71.88352051 179.24069092 -72.60297852 178.83294434 -73.34423828 178.4128418 C-74.7427971 177.61789653 -76.13971363 176.8200523 -77.53466797 176.01879883 C-78.17291504 175.6555249 -78.81116211 175.29225098 -79.46875 174.91796875 C-80.31083008 174.43493286 -80.31083008 174.43493286 -81.16992188 173.94213867 C-83.3898004 172.79932768 -85.67214786 171.89887607 -88 171 C-88.19830404 166.39210058 -88.34315655 161.78669851 -88.43945312 157.17553711 C-88.47959962 155.60869075 -88.53413434 154.04214258 -88.60351562 152.47631836 C-89.16568459 139.45962668 -89.16568459 139.45962668 -86.30664062 135.87963867 C-84.2103377 134.54578141 -82.3709331 133.721103 -80 133 C-78.845 132.566875 -77.69 132.13375 -76.5 131.6875 C-75.675 131.460625 -74.85 131.23375 -74 131 C-77.17126875 127.3541196 -81.31410855 125.75464077 -85.6015625 123.6953125 C-88 122 -88 122 -88.63500977 119.78710938 C-89.34873882 114.33698838 -89.26943795 108.86397579 -89.3125 103.375 C-89.34150391 102.13492188 -89.37050781 100.89484375 -89.40039062 99.6171875 C-89.40876953 98.43125 -89.41714844 97.2453125 -89.42578125 96.0234375 C-89.44036377 94.93981934 -89.45494629 93.85620117 -89.4699707 92.73974609 C-89 90 -89 90 -87.17553711 88.21020508 C-84.2916718 86.60597207 -81.34415225 85.45733633 -78.25 84.3125 C-77.07953125 83.87550781 -75.9090625 83.43851562 -74.703125 82.98828125 C-73.81109375 82.66214844 -72.9190625 82.33601563 -72 82 C-73.14339844 81.38511719 -74.28679687 80.77023438 -75.46484375 80.13671875 C-76.95599823 79.32080404 -78.44686907 78.50437081 -79.9375 77.6875 C-80.69224609 77.28337891 -81.44699219 76.87925781 -82.22460938 76.46289062 C-82.94326172 76.06650391 -83.66191406 75.67011719 -84.40234375 75.26171875 C-85.06741943 74.90037842 -85.73249512 74.53903809 -86.41772461 74.16674805 C-88 73 -88 73 -89 70 C-89.33810732 65.88985065 -89.44041553 61.78093286 -89.51489258 57.65820312 C-89.54655816 56.30583916 -89.59434448 54.95375401 -89.65844727 53.60253906 C-90.18003105 42.44091853 -90.18003105 42.44091853 -87.42529297 39.07714844 C-85.32763795 37.72529256 -83.3476775 36.83654385 -81 36 C-79.35837891 35.26330078 -79.35837891 35.26330078 -77.68359375 34.51171875 C-76.46800781 34.01285156 -75.25242187 33.51398438 -74 33 C-70.33716289 31.30647735 -66.700642 29.55833996 -63.0625 27.8125 C-62.03688965 27.32128662 -61.0112793 26.83007324 -59.95458984 26.32397461 C-53.70709399 23.32362917 -47.49148575 20.26889094 -41.3059082 17.14331055 C-31.7752356 12.34808797 -22.12299482 7.79746999 -12.49511719 3.20166016 C-10.93156612 2.44864662 -9.37865202 1.67265638 -7.84326172 0.86376953 C-5.04078675 -0.44949622 -3.06993384 -0.34359357 0 0 Z " fill="#C2C3C4" transform="translate(148,32)"/>
<path d="M0 0 C0.33 0.99 0.66 1.98 1 3 C4.21940955 4.14703322 4.21940955 4.14703322 8 5 C10.31 5.66 12.62 6.32 15 7 C15 18.22 15 29.44 15 41 C11.04 42.98 7.08 44.96 3 47 C0.31634625 48.45233026 -2.3671259 49.90513033 -5.0390625 51.37890625 C-7.78090742 52.88004826 -10.53730527 54.35099181 -13.30004883 55.81323242 C-19.97366902 59.34642702 -26.57649758 62.98797956 -33.14794922 66.70751953 C-38.37639446 69.66250533 -43.64673821 72.53170692 -48.9453125 75.359375 C-52.94075058 77.50526246 -56.89977826 79.71539542 -60.85546875 81.93359375 C-63 83 -63 83 -65 83 C-65.33 83.66 -65.66 84.32 -66 85 C-73.27220671 85.96962756 -77.89813737 82.64547178 -84 79 C-86.10174302 77.78745595 -88.20607463 76.57939154 -90.3125 75.375 C-91.16328125 74.88592163 -91.16328125 74.88592163 -92.03125 74.38696289 C-103.51966184 67.80659452 -115.20420096 61.56211841 -126.875 55.3125 C-130.32766459 53.46318361 -133.75680685 51.57978177 -137.1640625 49.6484375 C-137.88352051 49.24069092 -138.60297852 48.83294434 -139.34423828 48.4128418 C-140.7427971 47.61789653 -142.13971363 46.8200523 -143.53466797 46.01879883 C-144.17291504 45.6555249 -144.81116211 45.29225098 -145.46875 44.91796875 C-146.03013672 44.59594482 -146.59152344 44.2739209 -147.16992188 43.94213867 C-149.3898004 42.79932768 -151.67214786 41.89887607 -154 41 C-154.19830404 36.39210058 -154.34315655 31.78669851 -154.43945312 27.17553711 C-154.47959962 25.60869075 -154.53413434 24.04214258 -154.60351562 22.47631836 C-155.16512016 9.47269559 -155.16512016 9.47269559 -152.32421875 5.88183594 C-150.21793434 4.53463455 -148.38912441 3.71679227 -146 3 C-145.29383545 2.74992188 -144.5876709 2.49984375 -143.86010742 2.2421875 C-139.04342642 0.64400276 -134.9161096 0.91678941 -130 2 C-128.9793541 2.97891876 -127.97995943 3.98035324 -127 5 C-125.19139784 6.04873947 -125.19139784 6.04873947 -123.19921875 6.90234375 C-122.10383789 7.40217773 -122.10383789 7.40217773 -120.98632812 7.91210938 C-120.22771484 8.25048828 -119.46910156 8.58886719 -118.6875 8.9375 C-113.45788789 11.2793194 -108.73549988 13.7320295 -104 17 C-102.60006042 17.74084394 -101.18324587 18.45084361 -99.75 19.125 C-93.8479714 22.00403834 -88.14346986 25.21768497 -82.42089844 28.43408203 C-80.95039296 29.2587272 -79.47622711 30.07688756 -77.99804688 30.88769531 C-76.25102058 31.86025785 -74.53633411 32.89045683 -72.828125 33.9296875 C-70.02136687 35.27697357 -70.02136687 35.27697357 -67.0234375 34.41015625 C-63.78014237 32.89745659 -60.71075499 31.25157211 -57.625 29.4375 C-56.37656911 28.71178003 -55.12786083 27.98653708 -53.87890625 27.26171875 C-53.23711426 26.88708496 -52.59532227 26.51245117 -51.93408203 26.12646484 C-48.82178917 24.31377622 -45.69649636 22.52487551 -42.5625 20.75 C-41.92304443 20.38753174 -41.28358887 20.02506348 -40.62475586 19.65161133 C-33.39667462 15.59658072 -26.01933612 11.82290456 -18.62915039 8.07324219 C-17.68289795 7.58758789 -16.73664551 7.10193359 -15.76171875 6.6015625 C-14.91569092 6.17182129 -14.06966309 5.74208008 -13.19799805 5.29931641 C-11.09177926 4.05425405 -9.68042268 2.75264892 -8 1 C-5.12425185 -0.02042676 -3.15133739 0 0 0 Z " fill="#949799" transform="translate(214,162)"/>
<path d="M0 0 C2.59016331 1.16246981 4.93224716 2.34007437 7.375 3.75 C8.70539874 4.48887652 10.03612476 5.22716407 11.3671875 5.96484375 C11.9972168 6.3191748 12.62724609 6.67350586 13.27636719 7.03857422 C18.08330677 9.71983882 23.03313252 12.01804647 28.0949707 14.17446899 C31.2897641 15.55891017 34.44085901 17.03485265 37.59375 18.51171875 C38.30293579 18.84363724 39.01212158 19.17555573 39.74279785 19.51753235 C41.2390062 20.21861078 42.73489164 20.92037873 44.23046875 21.62280273 C46.46445078 22.67082292 48.70092299 23.71339123 50.9375 24.75585938 C60.45749024 29.21401462 69.77678341 33.95679246 79 39 C78.67 40.32 78.34 41.64 78 43 C75.03 43.495 75.03 43.495 72 44 C71.67 44.99 71.34 45.98 71 47 C69.22265625 48.16796875 69.22265625 48.16796875 67.0625 49.1875 C65.99708984 49.70376953 65.99708984 49.70376953 64.91015625 50.23046875 C63 51 63 51 61 51 C61 51.66 61 52.32 61 53 C59.69289062 53.63615234 59.69289062 53.63615234 58.359375 54.28515625 C52.45862862 57.18212902 46.65097326 60.13232539 41 63.5 C35.74784328 66.62496396 30.36105903 69.33941974 24.875 72.02734375 C19.4880392 74.71940951 14.26493469 77.71967975 9.04052734 80.7121582 C8.3130127 81.12425537 7.58549805 81.53635254 6.8359375 81.9609375 C6.19188965 82.33009277 5.5478418 82.69924805 4.88427734 83.07958984 C2.93899874 84.0297972 1.1128932 84.55280513 -1 85 C-0.95875 86.093125 -0.9175 87.18625 -0.875 88.3125 C-1 92 -1 92 -3 95 C-3.33 94.67 -3.66 94.34 -4 94 C-3.97164063 92.94941406 -3.94328125 91.89882812 -3.9140625 90.81640625 C-5.16745196 86.41150876 -5.73934529 86.11346058 -9.5234375 83.90234375 C-11.4607891 82.88848965 -13.4121484 81.90105849 -15.375 80.9375 C-17.29947917 79.94661458 -19.22395833 78.95572917 -21.1484375 77.96484375 C-22.11531494 77.47790039 -23.08219238 76.99095703 -24.07836914 76.48925781 C-31.5976488 72.656417 -38.94387509 68.48806576 -46.3125 64.375 C-54.28270931 59.93562356 -62.28542447 55.55734809 -70.30004883 51.19873047 C-71.60752075 50.48740967 -71.60752075 50.48740967 -72.94140625 49.76171875 C-73.70138916 49.34881592 -74.46137207 48.93591309 -75.24438477 48.51049805 C-79.17232123 46.35738891 -83.08434484 44.17536398 -87 42 C-87 51.24 -87 60.48 -87 70 C-86.34 70 -85.68 70 -85 70 C-85 71.32 -85 72.64 -85 74 C-85.99 73.67 -86.98 73.34 -88 73 C-89.65783432 68.02649704 -89.42075149 62.86944915 -89.51489258 57.65820312 C-89.54655816 56.30583916 -89.59434448 54.95375401 -89.65844727 53.60253906 C-90.18003105 42.44091853 -90.18003105 42.44091853 -87.42529297 39.07714844 C-85.32763795 37.72529256 -83.3476775 36.83654385 -81 36 C-79.35837891 35.26330078 -79.35837891 35.26330078 -77.68359375 34.51171875 C-76.46800781 34.01285156 -75.25242187 33.51398438 -74 33 C-70.33716289 31.30647735 -66.700642 29.55833996 -63.0625 27.8125 C-62.03688965 27.32128662 -61.0112793 26.83007324 -59.95458984 26.32397461 C-53.70709399 23.32362917 -47.49148575 20.26889094 -41.3059082 17.14331055 C-31.7752356 12.34808797 -22.12299482 7.79746999 -12.49511719 3.20166016 C-10.93156612 2.44864662 -9.37865202 1.67265638 -7.84326172 0.86376953 C-5.04078675 -0.44949622 -3.06993384 -0.34359357 0 0 Z " fill="#FCFCFB" transform="translate(148,32)"/>
<path d="M0 0 C4.65830312 1.86332125 8.95186279 3.97373458 13.375 6.3125 C14.19282959 6.74401367 15.01065918 7.17552734 15.85327148 7.62011719 C28.12601908 14.14256758 40.30148522 20.91209213 52.17578125 28.13671875 C56.39401669 30.68239948 60.69155131 32.92082532 65.125 35.0625 C66.50575519 35.76194234 67.88597042 36.46245169 69.265625 37.1640625 C71.41662352 38.24815716 73.47205726 39.17668429 75.734375 40.0234375 C78.25264021 41.09875513 79.40883177 41.75121021 81 44 C83.4457087 53.70967256 83.31167656 64.04366536 83 74 C93.06151158 69.37389196 102.98459367 64.65322798 112.5703125 59.09594727 C115.76599637 57.24339558 118.9805194 55.43885896 122.25390625 53.7265625 C123.2121228 53.22310303 123.2121228 53.22310303 124.18969727 52.70947266 C127.02648952 51.59771024 129.14456599 52.15634904 132 53 C133.175625 53.2784375 133.175625 53.2784375 134.375 53.5625 C134.91125 53.706875 135.4475 53.85125 136 54 C136 54.99 136 55.98 136 57 C134.88367188 57.58265625 133.76734375 58.1653125 132.6171875 58.765625 C122.60095162 64.00840532 112.64037946 69.34146455 102.73974609 74.79980469 C100.16681289 76.21316684 97.58432732 77.60760561 95 79 C93.66412842 79.7432251 93.66412842 79.7432251 92.30126953 80.50146484 C91.42970215 80.96891113 90.55813477 81.43635742 89.66015625 81.91796875 C88.49625366 82.55448364 88.49625366 82.55448364 87.30883789 83.20385742 C82.99560483 84.69116344 79.24544378 82.83899765 75.25 81.0625 C74.08210938 80.55396484 74.08210938 80.55396484 72.890625 80.03515625 C71 79 71 79 70 77 C67.16815763 75.70867988 64.27673349 74.62585577 61.37109375 73.51171875 C58.04034024 72.01809 55.14712844 70.27154159 52.08618164 68.30444336 C48.65756019 66.160602 45.08316489 64.30740299 41.5 62.4375 C40.79230469 62.06431641 40.08460937 61.69113281 39.35546875 61.30664062 C34.6010967 58.80777049 29.8104652 56.38898103 25 54 C25 53.34 25 52.68 25 52 C22.69 51.34 20.38 50.68 18 50 C18 48.68 18 47.36 18 46 C19.98 45.505 19.98 45.505 22 45 C18.30398634 40.56478361 14.75265172 38.90621728 9.3828125 36.89453125 C6.6249851 35.85921572 4.27528507 34.89607089 2 33 C1.6875 30.3125 1.6875 30.3125 2 28 C1.34 28 0.68 28 0 28 C0 18.76 0 9.52 0 0 Z " fill="#9D9FA2" transform="translate(61,74)"/>
<path d="M0 0 C1.2750428 0.45647816 2.54810172 0.91849991 3.8203125 1.3828125 C4.52945801 1.63949707 5.23860352 1.89618164 5.96923828 2.16064453 C8.91544736 3.37837317 11.36788742 5.21016345 14 7 C15.5014577 7.77794482 17.0145317 8.53365758 18.53515625 9.2734375 C23.96001866 11.95535878 29.26262131 14.83053103 34.5625 17.75 C41.37211032 21.48352315 48.19283825 25.19054537 55.0625 28.8125 C55.74763672 29.17408203 56.43277344 29.53566406 57.13867188 29.90820312 C58.4608611 30.60577634 59.78312405 31.30320983 61.10546875 32.00048828 C64.09452768 33.57744798 67.08044771 35.1598001 70.0625 36.75 C71.02285156 37.26046875 71.98320312 37.7709375 72.97265625 38.296875 C73.97167969 38.85890625 74.97070312 39.4209375 76 40 C77.05453369 40.38418091 77.05453369 40.38418091 78.13037109 40.77612305 C80.73021568 41.91746918 82.18821128 42.79283689 84 45 C85.01581611 50.12307716 84.75317671 55.1325284 84.5 60.3125 C84.45984499 61.73492649 84.42334764 63.15746125 84.390625 64.58007812 C84.30272435 68.05564395 84.16484613 71.52713582 84 75 C76.32789413 73.74227773 70.68180364 70.88087472 64 67 C62.15834746 65.99375295 60.31330217 64.99368941 58.46484375 64 C56.62239583 63 54.77994792 62 52.9375 61 C52.02162109 60.505 51.10574219 60.01 50.16210938 59.5 C44.75397426 56.56054652 39.45432855 53.48956737 34.19067383 50.29931641 C31.6446768 48.78925331 29.04751293 47.45916401 26.375 46.1875 C20.56231614 43.3454075 14.94983845 40.20736076 9.34326172 36.9831543 C6.5841607 35.40550047 4.02408221 34.0080274 1 33 C-0.48679725 30.02640551 -0.11112605 27.33700821 -0.09765625 24.0234375 C-0.09553383 22.99556625 -0.09553383 22.99556625 -0.09336853 21.94692993 C-0.08776675 19.75624239 -0.07521406 17.5656567 -0.0625 15.375 C-0.05748522 13.89062648 -0.05292228 12.40625135 -0.04882812 10.921875 C-0.03779677 7.28121685 -0.02053099 3.64061836 0 0 Z " fill="#7D7E82" transform="translate(61,171)"/>
<path d="M0 0 C0.99 0.495 0.99 0.495 2 1 C3.57060444 6.68697576 3.30140162 12.64558374 3.375 18.5 C3.43107422 20.19189453 3.43107422 20.19189453 3.48828125 21.91796875 C3.57643485 30.19461212 3.57643485 30.19461212 0.77734375 34.10546875 C-1.71610481 35.80634435 -4.13771007 37.41522168 -6.8125 38.8125 C-7.99779297 39.44091797 -7.99779297 39.44091797 -9.20703125 40.08203125 C-9.79871094 40.38496094 -10.39039063 40.68789062 -11 41 C-9.02 42.32 -7.04 43.64 -5 45 C-8 46 -8 46 -9.8671875 45.1171875 C-10.52976562 44.70726562 -11.19234375 44.29734375 -11.875 43.875 C-13.95173072 42.71460514 -13.95173072 42.71460514 -16 42 C-18.67994969 42.97357892 -18.67994969 42.97357892 -21 45 C-22.7241863 45.74156354 -24.44920036 46.48139655 -26.18188477 47.20288086 C-28.80757862 48.35406797 -31.22243384 49.78873247 -33.6875 51.25 C-41.10934481 55.57798848 -48.67703325 59.63255095 -56.25 63.6875 C-57.1542421 64.17277161 -57.1542421 64.17277161 -58.07675171 64.66784668 C-62.04249414 66.7952114 -66.01705917 68.90502155 -70 71 C-70.98291016 71.51771973 -71.96582031 72.03543945 -72.97851562 72.56884766 C-73.86732422 73.02694824 -74.75613281 73.48504883 -75.671875 73.95703125 C-76.44112305 74.35510986 -77.21037109 74.75318848 -78.00292969 75.16333008 C-80 76 -80 76 -83 76 C-83.99 61.15 -83.99 61.15 -85 46 C-84.34 46.33 -83.68 46.66 -83 47 C-82.59270772 49.32156597 -82.25561323 51.6568787 -82 54 C-81.98324219 53.41992188 -81.96648437 52.83984375 -81.94921875 52.2421875 C-81.52364074 48.39292964 -81.04844413 45.84314043 -77.9453125 43.34765625 C-75.01170368 41.77639099 -72.02432615 40.38879313 -69 39 C-66.37808542 37.63682144 -63.78436312 36.22268511 -61.1875 34.8125 C-57.82461784 33.009228 -54.45664196 31.22561362 -51.03515625 29.53515625 C-47.36976448 27.68123223 -43.81682919 25.66026108 -40.25 23.625 C-23.62378852 14.21595427 -23.62378852 14.21595427 -18 13 C-18 12.34 -18 11.68 -18 11 C-17.28972656 10.66226563 -16.57945312 10.32453125 -15.84765625 9.9765625 C-14.92855469 9.53054687 -14.00945312 9.08453125 -13.0625 8.625 C-12.14597656 8.18414062 -11.22945313 7.74328125 -10.28515625 7.2890625 C-7.87096198 6.20800838 -7.87096198 6.20800838 -7 4 C-5 3.33333333 -3 2.66666667 -1 2 C-0.67 1.34 -0.34 0.68 0 0 Z " fill="#D8D8DB" transform="translate(227,72)"/>
<path d="M0 0 C7.10319767 3.49751357 14.11420359 7.09206387 21 11 C22.32362971 11.74063702 23.64784267 12.48023272 24.97265625 13.21875 C25.63201172 13.58677734 26.29136719 13.95480469 26.97070312 14.33398438 C34.94915486 18.78135663 42.96341407 23.15858657 51 27.5 C58.49697525 31.55145004 65.98360452 35.61972919 73.4375 39.75 C74.19482422 40.16830078 74.95214844 40.58660156 75.73242188 41.01757812 C80.87886487 43.87886487 80.87886487 43.87886487 82 45 C83.24775601 51.29113344 83.11408427 57.54501814 83.0625 63.9375 C83.05798828 65.00291016 83.05347656 66.06832031 83.04882812 67.16601562 C83.03711787 69.77740291 83.02071724 72.38867124 83 75 C76.95421935 73.33918253 71.75371383 70.27905319 66.3125 67.25 C65.38244141 66.73695313 64.45238281 66.22390625 63.49414062 65.6953125 C61.60945936 64.6556685 59.72567437 63.6143981 57.84277344 62.5715332 C50.013368 58.24330555 42.14569436 53.99077977 34.234375 49.81445312 C30.75897204 47.97043658 27.37027468 46.02787714 24 44 C20.91499575 42.1944355 18.82252632 41.7699257 15.25 41.875 C14.05117187 41.90207031 14.05117187 41.90207031 12.828125 41.9296875 C12.22484375 41.95289063 11.6215625 41.97609375 11 42 C11.99 41.505 11.99 41.505 13 41 C10.10237675 37.79392009 6.75484375 36.15421496 2.9609375 34.18359375 C1 33 1 33 0 31 C-0.08586809 28.67583704 -0.10711043 26.34916693 -0.09765625 24.0234375 C-0.09553383 22.99556625 -0.09553383 22.99556625 -0.09336853 21.94692993 C-0.08776675 19.75624239 -0.07521406 17.5656567 -0.0625 15.375 C-0.05748522 13.89062648 -0.05292228 12.40625135 -0.04882812 10.921875 C-0.03779677 7.28121685 -0.02053099 3.64061836 0 0 Z " fill="#AFB0B3" transform="translate(61,122)"/>
<path d="M0 0 C4.67692308 1.47692308 4.67692308 1.47692308 6.3125 4.125 C6.539375 4.74375 6.76625 5.3625 7 6 C5.02 6.99 5.02 6.99 3 8 C3 8.66 3 9.32 3 10 C6.465 11.485 6.465 11.485 10 13 C10 13.66 10 14.32 10 15 C10.66773437 15.25265625 11.33546875 15.5053125 12.0234375 15.765625 C15.64109265 17.26585994 19.12893274 18.99033773 22.625 20.75 C23.33285645 21.10489502 24.04071289 21.45979004 24.77001953 21.82543945 C29.72572418 24.32353291 34.60919361 26.93327535 39.46484375 29.62109375 C43.58586624 31.86257439 47.79129116 33.92940528 52 36 C53.33378902 36.66575452 54.66727438 37.33211928 56 38 C56 38.66 56 39.32 56 40 C57.39449109 40.483059 58.79066707 40.96125517 60.1875 41.4375 C60.96480469 41.70433594 61.74210937 41.97117188 62.54296875 42.24609375 C63.35378906 42.49488281 64.16460937 42.74367187 65 43 C65.73992187 43.28875 66.47984375 43.5775 67.2421875 43.875 C71.73728666 44.07874387 75.08084941 41.70018633 78.9375 39.5625 C88.39179755 34.3428591 88.39179755 34.3428591 94 35 C94 35.66 94 36.32 94 37 C95.91740583 36.21012527 97.83389641 35.41802852 99.75 34.625 C100.81734375 34.18414062 101.8846875 33.74328125 102.984375 33.2890625 C105.90886126 32.10069712 105.90886126 32.10069712 108.203125 30.7734375 C110 30 110 30 113 31 C111.59138651 32.01131225 110.17274547 33.00866767 108.75 34 C107.56664062 34.8353125 107.56664062 34.8353125 106.359375 35.6875 C104 37 104 37 100 37 C99.67 37.99 99.34 38.98 99 40 C97.2421875 40.81640625 97.2421875 40.81640625 94.875 41.5625 C89.79273531 43.44536507 85.53355437 46.05457194 81.0625 49.0625 C80.41200684 49.49828369 79.76151367 49.93406738 79.09130859 50.38305664 C74.69330989 53.30203299 74.69330989 53.30203299 71 57 C70.51292338 59.32886455 70.51292338 59.32886455 70.5234375 61.9296875 C70.4925 62.89003906 70.4615625 63.85039062 70.4296875 64.83984375 C70.41164063 65.84144531 70.39359375 66.84304687 70.375 67.875 C70.32372493 69.85165397 70.26914655 71.82822557 70.2109375 73.8046875 C70.18459229 75.11928955 70.18459229 75.11928955 70.15771484 76.46044922 C69.99681043 79.05135903 69.5663297 81.46940943 69 84 C68.67 84 68.34 84 68 84 C67.97494385 83.33991943 67.9498877 82.67983887 67.92407227 81.99975586 C67.80728248 78.97884631 67.68493554 75.95818578 67.5625 72.9375 C67.52318359 71.89916016 67.48386719 70.86082031 67.44335938 69.79101562 C67.40146484 68.77587891 67.35957031 67.76074219 67.31640625 66.71484375 C67.27974854 65.78792725 67.24309082 64.86101074 67.20532227 63.90600586 C67.13756592 62.94702393 67.06980957 61.98804199 67 61 C66.94521484 59.80238037 66.89042969 58.60476074 66.83398438 57.37084961 C66.31754763 53.85877443 66.31754763 53.85877443 63.57006836 51.97119141 C62.50409424 51.43671387 61.43812012 50.90223633 60.33984375 50.3515625 C59.47453789 49.90351257 59.47453789 49.90351257 58.5917511 49.44641113 C56.71802232 48.48229978 54.82871592 47.5542622 52.9375 46.625 C51.64214016 45.9648451 50.34819436 45.30190835 49.05566406 44.63623047 C46.51509817 43.32969838 43.96961833 42.03374212 41.41943359 40.74609375 C37.30020007 38.64265536 33.26207127 36.42464012 29.25 34.125 C28.64269043 33.78001465 28.03538086 33.4350293 27.40966797 33.07958984 C26.21828056 32.40280441 25.02751205 31.72492817 23.83740234 31.04589844 C20.41996029 29.10059924 16.99046854 27.17666845 13.5625 25.25 C12.88711182 24.87012939 12.21172363 24.49025879 11.51586914 24.09887695 C3.04436757 19.33530511 -5.46710892 14.65430423 -14 10 C-14 20.23 -14 30.46 -14 41 C-14.66 41 -15.32 41 -16 41 C-17.4198951 34.8330676 -17.26307757 28.6747121 -17.3125 22.375 C-17.34150391 21.13492188 -17.37050781 19.89484375 -17.40039062 18.6171875 C-17.40876953 17.43125 -17.41714844 16.2453125 -17.42578125 15.0234375 C-17.44036377 13.93981934 -17.45494629 12.85620117 -17.4699707 11.73974609 C-17 9 -17 9 -15.17553711 7.21020508 C-12.2916718 5.60597207 -9.34415225 4.45733633 -6.25 3.3125 C-5.07953125 2.87550781 -3.9090625 2.43851562 -2.703125 1.98828125 C-1.81109375 1.66214844 -0.9190625 1.33601563 0 1 C0 0.67 0 0.34 0 0 Z " fill="#CED1D0" transform="translate(76,113)"/>
<path d="M0 0 C0.495 0.99 0.495 0.99 1 2 C1.804375 2.12375 2.60875 2.2475 3.4375 2.375 C6.53863959 2.91905958 9.27930074 3.61040517 12.25 4.625 C13.10078125 4.90601562 13.9515625 5.18703125 14.828125 5.4765625 C18.11925535 7.78508918 18.27739685 10.12242465 19 14 C19.23046875 17.796875 19.23046875 17.796875 19.1875 21.75 C19.18105469 22.44158203 19.17460937 23.13316406 19.16796875 23.84570312 C19.08274343 29.59308557 18.67731559 35.29119718 18 41 C17.67 41 17.34 41 17 41 C17 30.77 17 20.54 17 10 C15.68 10 14.36 10 13 10 C13 10.66 13 11.32 13 12 C12.154375 12.391875 11.30875 12.78375 10.4375 13.1875 C6.93650253 14.92505244 6.93650253 14.92505244 3.80078125 17.3515625 C-0.00904563 20.10901227 -4.01671022 22.16168129 -8.25 24.1875 C-13.76025771 26.84668705 -13.76025771 26.84668705 -19 30 C-20.93754522 30.45975649 -22.87545809 30.91810965 -24.81640625 31.36328125 C-27.10675357 32.0311285 -29.02115441 32.9439487 -31.125 34.0625 C-35.17721206 36.19189771 -38.76039225 37.41255932 -43.375 36.5625 C-44.179375 36.2840625 -44.179375 36.2840625 -45 36 C-43.81516764 32.44550292 -43.2710072 32.32000694 -40.0625 30.6953125 C-38.84240234 30.06689453 -38.84240234 30.06689453 -37.59765625 29.42578125 C-36.74042969 28.99652344 -35.88320312 28.56726563 -35 28.125 C-33.33279523 27.27449148 -31.66612656 26.42293126 -30 25.5703125 C-29.175 25.15168945 -28.35 24.73306641 -27.5 24.30175781 C-24.21964651 22.5936675 -21.01312092 20.76607646 -17.8125 18.91357422 C-16 18 -16 18 -14 18 C-14 17.01 -14 16.02 -14 15 C-14.94875 14.87625 -15.8975 14.7525 -16.875 14.625 C-20 14 -20 14 -22 12 C-15.21027222 7.642568 -8.72094457 3.52415495 -1 1 C-0.67 0.67 -0.34 0.34 0 0 Z " fill="#CFD0D2" transform="translate(211,113)"/>
<path d="M0 0 C4.67692308 1.47692308 4.67692308 1.47692308 6.3125 4.125 C6.539375 4.74375 6.76625 5.3625 7 6 C5.02 6.99 5.02 6.99 3 8 C3 8.66 3 9.32 3 10 C6.465 11.485 6.465 11.485 10 13 C10 13.66 10 14.32 10 15 C10.66644531 15.25136719 11.33289063 15.50273437 12.01953125 15.76171875 C15.66800602 17.2775333 19.16395624 19.02906016 22.6875 20.8125 C23.39068359 21.16634766 24.09386719 21.52019531 24.81835938 21.88476562 C26.22482492 22.59251043 27.63092024 23.30099151 29.03662109 24.01025391 C31.68781018 25.34672749 34.34368768 26.67374392 37 28 C38.33333333 28.66666667 39.66666667 29.33333333 41 30 C41 30.66 41 31.32 41 32 C40.030625 31.67 39.06125 31.34 38.0625 31 C35.13238562 30.14513766 32.66914339 29.93945027 29.625 30.0625 C21.4643807 30.2143897 15.23957822 26.77718607 8.46484375 22.5390625 C1.20012505 18.0029307 -6.49231927 14.09509858 -14 10 C-14 20.23 -14 30.46 -14 41 C-14.66 41 -15.32 41 -16 41 C-17.4198951 34.8330676 -17.26307757 28.6747121 -17.3125 22.375 C-17.34150391 21.13492188 -17.37050781 19.89484375 -17.40039062 18.6171875 C-17.40876953 17.43125 -17.41714844 16.2453125 -17.42578125 15.0234375 C-17.44036377 13.93981934 -17.45494629 12.85620117 -17.4699707 11.73974609 C-17 9 -17 9 -15.17553711 7.21020508 C-12.2916718 5.60597207 -9.34415225 4.45733633 -6.25 3.3125 C-5.07953125 2.87550781 -3.9090625 2.43851562 -2.703125 1.98828125 C-1.81109375 1.66214844 -0.9190625 1.33601563 0 1 C0 0.67 0 0.34 0 0 Z " fill="#C8CBCD" transform="translate(76,113)"/>
<path d="M0 0 C5.21048211 1.32947868 9.73029836 3.16216229 14.5 5.625 C15.52625488 6.14525757 15.52625488 6.14525757 16.57324219 6.67602539 C22.14080754 9.51405418 27.65542258 12.45412365 33.12695312 15.47314453 C36.04134449 17.06024526 38.71321853 18.42237256 42 19 C42 19.66 42 20.32 42 21 C47.0916961 22.29215248 49.87334374 21.64097616 54.625 19.5 C55.23545166 19.22663818 55.84590332 18.95327637 56.47485352 18.67163086 C61.46339746 16.38232762 66.13623693 13.64762748 70.8359375 10.81640625 C74.50735872 8.70873851 78.24277347 6.82147555 82.0625 5 C82.70630615 4.68490479 83.3501123 4.36980957 84.01342773 4.04516602 C88.64228405 1.88076135 88.64228405 1.88076135 92 3 C90.59138651 4.01131225 89.17274547 5.00866767 87.75 6 C86.96109375 6.556875 86.1721875 7.11375 85.359375 7.6875 C83 9 83 9 79 9 C78.67 9.99 78.34 10.98 78 12 C76.2421875 12.81640625 76.2421875 12.81640625 73.875 13.5625 C68.79273531 15.44536507 64.53355437 18.05457194 60.0625 21.0625 C59.41200684 21.49828369 58.76151367 21.93406738 58.09130859 22.38305664 C53.69330989 25.30203299 53.69330989 25.30203299 50 29 C49.51292338 31.32886455 49.51292338 31.32886455 49.5234375 33.9296875 C49.47703125 35.37021484 49.47703125 35.37021484 49.4296875 36.83984375 C49.41164062 37.84144531 49.39359375 38.84304687 49.375 39.875 C49.32372493 41.85165397 49.26914655 43.82822557 49.2109375 45.8046875 C49.18459229 47.11928955 49.18459229 47.11928955 49.15771484 48.46044922 C48.99681043 51.05135903 48.5663297 53.46940943 48 56 C47.67 56 47.34 56 47 56 C46.97494385 55.33991943 46.9498877 54.67983887 46.92407227 53.99975586 C46.80728248 50.97884631 46.68493554 47.95818578 46.5625 44.9375 C46.52318359 43.89916016 46.48386719 42.86082031 46.44335938 41.79101562 C46.40146484 40.77587891 46.35957031 39.76074219 46.31640625 38.71484375 C46.26141968 37.32446899 46.26141968 37.32446899 46.20532227 35.90600586 C46.13756592 34.94702393 46.06980957 33.98804199 46 33 C45.91673462 31.20248291 45.91673462 31.20248291 45.83178711 29.36865234 C45.31857427 25.86176425 45.31857427 25.86176425 42.5859375 23.98706055 C41.52632812 23.45894775 40.46671875 22.93083496 39.375 22.38671875 C38.80013855 22.09039047 38.2252771 21.79406219 37.63299561 21.48875427 C35.76610448 20.5318464 33.88387528 19.61044479 32 18.6875 C30.0773911 17.70992402 28.15958219 16.72332337 26.24163818 15.7366333 C24.96735164 15.08219524 23.69150957 14.43077708 22.41412354 13.78240967 C17.08344706 11.07365016 11.89056666 8.1766418 6.75 5.125 C6.04875 4.71467529 5.3475 4.30435059 4.625 3.8815918 C3.06359165 2.95349745 1.52792728 1.98223896 0 1 C0 0.67 0 0.34 0 0 Z " fill="#E4E6E2" transform="translate(97,141)"/>
<path d="M0 0 C0.69480469 0.15984375 1.38960937 0.3196875 2.10546875 0.484375 C2.66878906 0.73703125 3.23210937 0.9896875 3.8125 1.25 C4.3075 2.735 4.3075 2.735 4.8125 4.25 C3.52336513 4.92154933 2.23109796 5.58708859 0.9375 6.25 C0.21820313 6.62125 -0.50109375 6.9925 -1.2421875 7.375 C-3.1875 8.25 -3.1875 8.25 -5.1875 8.25 C-5.1875 8.91 -5.1875 9.57 -5.1875 10.25 C-6.1775 10.58 -7.1675 10.91 -8.1875 11.25 C-8.5175 12.9 -8.8475 14.55 -9.1875 16.25 C-11.4975 16.91 -13.8075 17.57 -16.1875 18.25 C-16.21457031 18.99765625 -16.24164063 19.7453125 -16.26953125 20.515625 C-17.1875 23.25 -17.1875 23.25 -20.13671875 25.234375 C-21.37379468 25.84164271 -22.62047723 26.42964612 -23.875 27 C-24.48794922 27.30292969 -25.10089844 27.60585937 -25.73242188 27.91796875 C-30.81237488 30.34212448 -35.68679138 32.15409145 -41.1875 30.25 C-40.00266764 26.69550292 -39.4585072 26.57000694 -36.25 24.9453125 C-35.02990234 24.31689453 -35.02990234 24.31689453 -33.78515625 23.67578125 C-32.92792969 23.24652344 -32.07070312 22.81726563 -31.1875 22.375 C-29.52029523 21.52449148 -27.85362656 20.67293126 -26.1875 19.8203125 C-25.3625 19.40168945 -24.5375 18.98306641 -23.6875 18.55175781 C-20.40714651 16.8436675 -17.20062092 15.01607646 -14 13.16357422 C-12.1875 12.25 -12.1875 12.25 -10.1875 12.25 C-10.1875 11.26 -10.1875 10.27 -10.1875 9.25 C-11.13625 9.12625 -12.085 9.0025 -13.0625 8.875 C-16.1875 8.25 -16.1875 8.25 -18.1875 6.25 C-16.60815361 5.26441551 -15.02384827 4.28677459 -13.4375 3.3125 C-12.11492187 2.49458984 -12.11492187 2.49458984 -10.765625 1.66015625 C-6.85015899 -0.48148501 -4.34617295 -1.07635053 0 0 Z " fill="#CED0D1" transform="translate(207.1875,118.75)"/>
<path d="M0 0 C8.16170885 1.37000113 15.33162797 5.59429406 22.5 9.5625 C27.41672251 12.26027411 32.25996376 14.30188453 37.5625 16.09765625 C40.97782664 17.3619839 43.88032822 19.12819693 47 21 C47.825 21.33 48.65 21.66 49.5 22 C52.87634806 23.35053922 55.86609555 25.15652679 59 27 C58 30 58 30 56.34765625 30.91015625 C52.79258332 31.04620729 50.36084531 29.24927389 47.4375 27.4375 C46.17110637 26.68269801 44.90417419 25.92879889 43.63671875 25.17578125 C43.01458496 24.80146973 42.39245117 24.4271582 41.75146484 24.04150391 C39.45042284 22.6731954 37.10744955 21.39327131 34.75 20.125 C29.81328533 17.45216336 24.90497057 14.73047734 20 12 C13.35117906 8.29990693 6.69011796 4.62504189 0 1 C0 0.67 0 0.34 0 0 Z " fill="#E9EAE7" transform="translate(81,84)"/>
<path d="M0 0 C0.78375 0.185625 1.5675 0.37125 2.375 0.5625 C3.179375 0.7790625 3.179375 0.7790625 4 1 C4 1.99 4 2.98 4 4 C3.42967041 4.29769287 2.85934082 4.59538574 2.27172852 4.90209961 C-0.29902362 6.2453117 -2.86827652 7.59136647 -5.4375 8.9375 C-6.33533203 9.40607422 -7.23316406 9.87464844 -8.15820312 10.35742188 C-9.01220703 10.80537109 -9.86621094 11.25332031 -10.74609375 11.71484375 C-11.53685303 12.12855225 -12.3276123 12.54226074 -13.14233398 12.96850586 C-14.95565275 13.86400751 -14.95565275 13.86400751 -16 15 C-18.375 15.25 -18.375 15.25 -21 15 C-22.8125 13.5 -22.8125 13.5 -24 12 C-21.62455485 6.92882495 -18.46242198 5.10294785 -13.6875 2.625 C-13.03587891 2.25761719 -12.38425781 1.89023438 -11.71289062 1.51171875 C-7.41805393 -0.76682324 -4.85343199 -1.3856797 0 0 Z " fill="#808386" transform="translate(193,127)"/>
<path d="M0 0 C2.45127642 1.30024228 3.8256994 2.44900828 5.6953125 4.4296875 C3.07560457 5.96033689 0.45029607 7.47938498 -2.1796875 8.9921875 C-2.92605469 9.42982422 -3.67242187 9.86746094 -4.44140625 10.31835938 C-5.15683594 10.72763672 -5.87226563 11.13691406 -6.609375 11.55859375 C-7.26921387 11.94088135 -7.92905273 12.32316895 -8.60888672 12.71704102 C-9.16850098 12.95221436 -9.72811523 13.1873877 -10.3046875 13.4296875 C-10.9646875 13.0996875 -11.6246875 12.7696875 -12.3046875 12.4296875 C-13.573125 11.9965625 -13.573125 11.9965625 -14.8671875 11.5546875 C-15.6715625 11.1834375 -16.4759375 10.8121875 -17.3046875 10.4296875 C-17.6346875 9.4396875 -17.9646875 8.4496875 -18.3046875 7.4296875 C-15.94189096 6.02884375 -13.56837525 4.66006651 -11.1796875 3.3046875 C-10.51453125 2.90636719 -9.849375 2.50804687 -9.1640625 2.09765625 C-5.65913888 0.13902246 -4.06747499 -0.70195195 0 0 Z M-20.3046875 8.4296875 C-19.6446875 8.7596875 -18.9846875 9.0896875 -18.3046875 9.4296875 C-19.2946875 10.0896875 -20.2846875 10.7496875 -21.3046875 11.4296875 C-20.9746875 10.4396875 -20.6446875 9.4496875 -20.3046875 8.4296875 Z " fill="#7A7D7D" transform="translate(206.3046875,166.5703125)"/>
<path d="M0 0 C2.73746446 1.48293967 5.45838328 2.99025569 8.16796875 4.5234375 C3.46475019 9.23994199 3.46475019 9.23994199 1.16796875 10.5234375 C-2.92455871 9.24496906 -6.47187318 7.07781701 -10.14453125 4.8984375 C-11.74748047 3.95097656 -11.74748047 3.95097656 -13.3828125 2.984375 C-14.59517578 2.26121094 -14.59517578 2.26121094 -15.83203125 1.5234375 C-10.14315813 -4.29363558 -7.21450751 -3.76149495 0 0 Z " fill="#818284" transform="translate(92.83203125,169.4765625)"/>
<path d="M0 0 C5.785014 1.52237211 11.27535988 4.33046726 16 8 C16 8.99 16 9.98 16 11 C13.5 13.1875 13.5 13.1875 11 15 C6.25 13.125 6.25 13.125 4 12 C4 11.34 4 10.68 4 10 C1.69 9.34 -0.62 8.68 -3 8 C-3 6.68 -3 5.36 -3 4 C-1.68 3.67 -0.36 3.34 1 3 C0.67 2.01 0.34 1.02 0 0 Z " fill="#B1B4B5" transform="translate(82,116)"/>
<path d="M0 0 C0.69480469 0.15984375 1.38960937 0.3196875 2.10546875 0.484375 C2.66878906 0.73703125 3.23210937 0.9896875 3.8125 1.25 C4.1425 2.24 4.4725 3.23 4.8125 4.25 C3.52336513 4.92154933 2.23109796 5.58708859 0.9375 6.25 C0.21820313 6.62125 -0.50109375 6.9925 -1.2421875 7.375 C-3.1875 8.25 -3.1875 8.25 -5.1875 8.25 C-5.1875 8.91 -5.1875 9.57 -5.1875 10.25 C-6.8375 10.91 -8.4875 11.57 -10.1875 12.25 C-10.1875 11.26 -10.1875 10.27 -10.1875 9.25 C-11.13625 9.12625 -12.085 9.0025 -13.0625 8.875 C-16.1875 8.25 -16.1875 8.25 -18.1875 6.25 C-16.60815361 5.26441551 -15.02384827 4.28677459 -13.4375 3.3125 C-12.55578125 2.76722656 -11.6740625 2.22195312 -10.765625 1.66015625 C-6.85015899 -0.48148501 -4.34617295 -1.07635053 0 0 Z " fill="#B1B2B2" transform="translate(207.1875,118.75)"/>
<path d="M0 0 C0.33 0.99 0.66 1.98 1 3 C-6.51311644 7.31308537 -14.23523943 11.16732302 -22 15 C-22.93423645 11.98968256 -23.04449911 11.13349732 -22 8 C-19.45247866 6.4632599 -16.97462838 5.11644774 -14.3125 3.8125 C-13.60416016 3.44447266 -12.89582031 3.07644531 -12.16601562 2.69726562 C-7.9399786 0.59400251 -4.83126849 -0.46410611 0 0 Z " fill="#D4D6D6" transform="translate(170,148)"/>
<path d="M0 0 C3.60674662 1.76329835 6.5930807 3.97621699 9.8125 6.375 C8.8125 9.375 8.8125 9.375 5.8125 11.375 C1.48003433 11.94978815 -0.88418051 10.68912447 -4.5 8.375 C-5.38300781 7.818125 -6.26601562 7.26125 -7.17578125 6.6875 C-8.17158203 6.0378125 -8.17158203 6.0378125 -9.1875 5.375 C-3.0900788 -0.88287966 -3.0900788 -0.88287966 0 0 Z " fill="#888B8F" transform="translate(102.1875,125.625)"/>
<path d="M0 0 C-1.40861349 1.01131225 -2.82725453 2.00866767 -4.25 3 C-5.03890625 3.556875 -5.8278125 4.11375 -6.640625 4.6875 C-9 6 -9 6 -13 6 C-13.33 6.99 -13.66 7.98 -14 9 C-16.00390625 9.9921875 -16.00390625 9.9921875 -18.5625 10.875 C-22.01856375 12.15629636 -25.00277202 13.50828747 -28.0625 15.5625 C-32.12042331 18.25118538 -36.34116374 19.67352579 -41 21 C-41 20.01 -41 19.02 -41 18 C-39.28103516 17.22076172 -39.28103516 17.22076172 -37.52734375 16.42578125 C-35.99721985 15.72173651 -34.46728178 15.0172878 -32.9375 14.3125 C-32.18533203 13.97283203 -31.43316406 13.63316406 -30.65820312 13.28320312 C-26.26758553 11.24945385 -22.44269798 8.99442808 -18.57006836 6.09985352 C-16.44276104 4.60964678 -14.24625901 3.69855853 -11.8125 2.8125 C-9.3950997 1.91787154 -7.14077142 1.07832199 -4.88671875 -0.17578125 C-3 -1 -3 -1 0 0 Z " fill="#EDEEEB" transform="translate(189,144)"/>
<path d="M0 0 C-5.75 3 -5.75 3 -8 3 C-8 3.66 -8 4.32 -8 5 C-9.30710937 5.63615234 -9.30710937 5.63615234 -10.640625 6.28515625 C-17.69128929 9.74673557 -24.53476985 13.40189385 -31.2890625 17.421875 C-34.78534408 19.45717437 -38.35498421 21.24758856 -42 23 C-41.83984375 20.16015625 -41.83984375 20.16015625 -41 17 C-38.62890625 15.49609375 -38.62890625 15.49609375 -35.5625 14.4375 C-30.54803731 12.5906955 -25.88146542 10.50423846 -21.15625 8.015625 C-19 7 -19 7 -16.78125 6.484375 C-16.1934375 6.32453125 -15.605625 6.1646875 -15 6 C-14.67 5.34 -14.34 4.68 -14 4 C-12.0563132 3.02958789 -10.0690532 2.14518379 -8.0625 1.3125 C-6.98097656 0.85488281 -5.89945313 0.39726563 -4.78515625 -0.07421875 C-2 -1 -2 -1 0 0 Z " fill="#EEEFEC" transform="translate(217,80)"/>
<path d="M0 0 C8.21736639 1.37934364 15.45385604 5.65951806 22.6875 9.625 C27.38122846 12.19590855 31.92721222 14.30907074 37 16 C36.67 17.32 36.34 18.64 36 20 C32.69922308 18.7354402 29.61219988 17.32587601 26.5234375 15.609375 C25.69231445 15.14958252 24.86119141 14.68979004 24.00488281 14.21606445 C23.13702148 13.73226318 22.26916016 13.24846191 21.375 12.75 C19.58601046 11.75898286 17.79694844 10.76809656 16.0078125 9.77734375 C15.14833008 9.30022949 14.28884766 8.82311523 13.40332031 8.33154297 C10.3594073 6.64508405 7.306338 4.97632891 4.25 3.3125 C3.40953125 2.85488281 2.5690625 2.39726563 1.703125 1.92578125 C1.14109375 1.62027344 0.5790625 1.31476563 0 1 C0 0.67 0 0.34 0 0 Z " fill="#E1E2E0" transform="translate(81,84)"/>
<path d="M0 0 C1 2 1 2 1 5 C2.94009522 6.70532323 2.94009522 6.70532323 5 8 C-1.99728703 12.04557786 -1.99728703 12.04557786 -5.75 11.875 C-7.91658471 11.03243928 -9.96766829 10.12907317 -12 9 C-10.67708855 5.03126566 -9.08850262 4.70094963 -5.4375 2.8125 C-4.42558594 2.28269531 -3.41367188 1.75289062 -2.37109375 1.20703125 C-1.58863281 0.80871094 -0.80617187 0.41039062 0 0 Z " fill="#8E9295" transform="translate(170,135)"/>
<path d="M0 0 C2.475 0.99 2.475 0.99 5 2 C4.76228882 2.80872559 4.76228882 2.80872559 4.51977539 3.63378906 C3.91090977 6.40557189 3.78489684 9.02288851 3.68359375 11.859375 C3.64169922 12.97441406 3.59980469 14.08945313 3.55664062 15.23828125 C3.49766602 16.97658203 3.49766602 16.97658203 3.4375 18.75 C3.39431641 19.92433594 3.35113281 21.09867188 3.30664062 22.30859375 C3.20065206 25.20561451 3.09858362 28.10271935 3 31 C2.01 30.67 1.02 30.34 0 30 C0 20.1 0 10.2 0 0 Z " fill="#7A7B7D" transform="translate(61,171)"/>
<path d="M0 0 C6.66666667 3.33333333 13.33333333 6.66666667 20 10 C20 10.66 20 11.32 20 12 C19.030625 11.67 18.06125 11.34 17.0625 11 C14.05421711 10.11521091 11.50301119 9.94199036 8.375 10.0625 C5.36879003 10.11902703 3.83714593 9.94017606 0.9375 8.875 C-1 7 -1 7 -1.375 3.875 C-1 1 -1 1 0 0 Z " fill="#C6CACB" transform="translate(97,133)"/>
<path d="M0 0 C1.32 0.33 2.64 0.66 4 1 C4 12.22 4 23.44 4 35 C2.02 35.495 2.02 35.495 0 36 C0.13813025 31.85387186 0.28678859 27.70818838 0.4375 23.5625 C0.47681641 22.37849609 0.51613281 21.19449219 0.55664062 19.97460938 C0.59853516 18.84990234 0.64042969 17.72519531 0.68359375 16.56640625 C0.72025146 15.52427979 0.75690918 14.48215332 0.79467773 13.40844727 C1 11 1 11 2 10 C2.23075082 8.65252916 2.41153063 7.29622435 2.5625 5.9375 C2.7790625 3.9884375 2.7790625 3.9884375 3 2 C2.01 1.67 1.02 1.34 0 1 C0 0.67 0 0.34 0 0 Z " fill="#AFB4B5" transform="translate(225,168)"/>
<path d="M0 0 C0.33 0.99 0.66 1.98 1 3 C-1.63904371 4.41377341 -4.07120629 5.37240135 -7 6 C-7.33 7.65 -7.66 9.3 -8 11 C-9.1446875 10.938125 -9.1446875 10.938125 -10.3125 10.875 C-13.22718416 10.77919176 -13.22718416 10.77919176 -16 13 C-17.32 11.68 -18.64 10.36 -20 9 C-17.23456804 7.48987869 -14.46183193 5.99369852 -11.6875 4.5 C-10.90181641 4.07074219 -10.11613281 3.64148438 -9.30664062 3.19921875 C-8.54931641 2.79316406 -7.79199219 2.38710937 -7.01171875 1.96875 C-6.31522217 1.59169922 -5.61872559 1.21464844 -4.90112305 0.82617188 C-3 0 -3 0 0 0 Z " fill="#CACCCD" transform="translate(198,131)"/>
<path d="M0 0 C0.99 0.33 1.98 0.66 3 1 C2.67 10.24 2.34 19.48 2 29 C2.66 29 3.32 29 4 29 C4 30.32 4 31.64 4 33 C3.01 32.67 2.02 32.34 1 32 C-0.13917218 28.58248347 -0.11338481 25.96512063 -0.09765625 22.36328125 C-0.09443359 21.06455078 -0.09121094 19.76582031 -0.08789062 18.42773438 C-0.07953531 17.05598892 -0.07107037 15.68424413 -0.0625 14.3125 C-0.05748335 12.92903805 -0.05292073 11.54557437 -0.04882812 10.16210938 C-0.03702529 6.77469605 -0.02056019 3.38736967 0 0 Z " fill="#DFE0E0" transform="translate(59,73)"/>
<path d="M0 0 C0.66 0.33 1.32 0.66 2 1 C-1.625 4 -1.625 4 -5 4 C-4.67 14.56 -4.34 25.12 -4 36 C-4.66 36 -5.32 36 -6 36 C-7.4198951 29.8330676 -7.26307757 23.6747121 -7.3125 17.375 C-7.34150391 16.13492188 -7.37050781 14.89484375 -7.40039062 13.6171875 C-7.40876953 12.43125 -7.41714844 11.2453125 -7.42578125 10.0234375 C-7.44036377 8.93981934 -7.45494629 7.85620117 -7.4699707 6.73974609 C-7 4 -7 4 -5.16088867 2.18603516 C-3 1 -3 1 0 0 Z " fill="#E2E3E5" transform="translate(66,118)"/>
<path d="M0 0 C0.99 0.495 0.99 0.495 2 1 C2.40729228 3.32156597 2.74438677 5.6568787 3 8 C3.66 7.34 4.32 6.68 5 6 C4.67 11.94 4.34 17.88 4 24 C3.34 24 2.68 24 2 24 C1.66231828 20.93796326 1.33063107 17.87530542 1 14.8125 C0.90460938 13.94818359 0.80921875 13.08386719 0.7109375 12.19335938 C0.27309811 8.11207075 -0.13621913 4.11211498 0 0 Z " fill="#E5E5E4" transform="translate(142,118)"/>
<path d="M0 0 C-5.625 5 -5.625 5 -9 5 C-8.67 15.56 -8.34 26.12 -8 37 C-8.66 37 -9.32 37 -10 37 C-10.19830404 32.39210058 -10.34315655 27.78669851 -10.43945312 23.17553711 C-10.47959962 21.60869075 -10.53413434 20.04214258 -10.60351562 18.47631836 C-11.16526714 5.46929238 -11.16526714 5.46929238 -8.25390625 1.79833984 C-3.11702675 -1.55851337 -3.11702675 -1.55851337 0 0 Z " fill="#C1C1C4" transform="translate(70,166)"/>
<path d="M0 0 C5.49731992 1.38333607 10.27413467 3.42244888 15.3125 6 C16.38467773 6.53367188 16.38467773 6.53367188 17.47851562 7.078125 C20.31500811 8.51107502 22.73807348 9.73807348 25 12 C22.34839803 13.03326595 21.29162267 13.1209714 18.61816406 12.01196289 C17.75932617 11.5039917 16.90048828 10.99602051 16.015625 10.47265625 C15.08105469 9.92802734 14.14648438 9.38339844 13.18359375 8.82226562 C12.21550781 8.24154297 11.24742188 7.66082031 10.25 7.0625 C9.26644531 6.48564453 8.28289062 5.90878906 7.26953125 5.31445312 C4.83964128 3.88718766 2.4170917 2.44879894 0 1 C0 0.67 0 0.34 0 0 Z " fill="#DEDEDC" transform="translate(97,141)"/>
<path d="M0 0 C1.22589844 0.15275391 1.22589844 0.15275391 2.4765625 0.30859375 C3.41628906 0.43427734 3.41628906 0.43427734 4.375 0.5625 C1.19016089 3.20136669 -1.9148821 5.70744105 -5.625 7.5625 C-6.615 7.2325 -7.605 6.9025 -8.625 6.5625 C-8.02316251 4.54204558 -7.35193904 2.54138961 -6.625 0.5625 C-4.10446405 -0.69776798 -2.7707902 -0.35624445 0 0 Z " fill="#D0D4D3" transform="translate(197.625,135.4375)"/>
<path d="M0 0 C-1.40861349 1.01131225 -2.82725453 2.00866767 -4.25 3 C-5.43335938 3.8353125 -5.43335938 3.8353125 -6.640625 4.6875 C-9 6 -9 6 -13 6 C-13.33 6.99 -13.66 7.98 -14 9 C-14.66 8.67 -15.32 8.34 -16 8 C-16 7.67 -16 7.34 -16 7 C-16.66 6.67 -17.32 6.34 -18 6 C-15.56781941 4.80036357 -13.13029422 3.61515562 -10.6875 2.4375 C-9.99720703 2.09525391 -9.30691406 1.75300781 -8.59570312 1.40039062 C-3.33984375 -1.11328125 -3.33984375 -1.11328125 0 0 Z " fill="#E2E4E1" transform="translate(189,144)"/>
<path d="M0 0 C-5.75 3 -5.75 3 -8 3 C-8 3.66 -8 4.32 -8 5 C-9.78614318 6.03046722 -11.57910018 7.04913236 -13.375 8.0625 C-14.37273437 8.63097656 -15.37046875 9.19945313 -16.3984375 9.78515625 C-17.25695312 10.18605469 -18.11546875 10.58695313 -19 11 C-19.66 10.67 -20.32 10.34 -21 10 C-20.030625 9.38125 -19.06125 8.7625 -18.0625 8.125 C-14.97164638 6.34321154 -14.97164638 6.34321154 -14 4 C-12.0563132 3.02958789 -10.0690532 2.14518379 -8.0625 1.3125 C-6.98097656 0.85488281 -5.89945313 0.39726563 -4.78515625 -0.07421875 C-2 -1 -2 -1 0 0 Z " fill="#E8EAE6" transform="translate(217,80)"/>
<path d="M0 0 C0.99 0 1.98 0 3 0 C2.76228882 0.80872559 2.76228882 0.80872559 2.51977539 1.63378906 C1.91090977 4.40557189 1.78489684 7.02288851 1.68359375 9.859375 C1.64169922 10.97441406 1.59980469 12.08945313 1.55664062 13.23828125 C1.49766602 14.97658203 1.49766602 14.97658203 1.4375 16.75 C1.39431641 17.92433594 1.35113281 19.09867188 1.30664062 20.30859375 C1.20065206 23.20561451 1.09858362 26.10271935 1 29 C0.01 28.34 -0.98 27.68 -2 27 C-1.34 27 -0.68 27 0 27 C0 18.09 0 9.18 0 0 Z " fill="#717476" transform="translate(63,173)"/>
<path d="M0 0 C0.33 0.99 0.66 1.98 1 3 C-1.96178773 4.67110042 -4.37071192 5.32682752 -7.75 5.625 C-8.54921875 5.69976562 -9.3484375 5.77453125 -10.171875 5.8515625 C-11.07679688 5.92503906 -11.07679688 5.92503906 -12 6 C-8.62118043 2.41000421 -5.05046927 0 0 0 Z " fill="#C2C5C9" transform="translate(198,131)"/>
<path d="M0 0 C0.78375 0.04125 1.5675 0.0825 2.375 0.125 C2.375 1.775 2.375 3.425 2.375 5.125 C0.065 5.125 -2.245 5.125 -4.625 5.125 C-4.625 1.22254579 -3.95783286 0.18846823 0 0 Z " fill="#7F8388" transform="translate(98.625,126.875)"/>
<path d="M0 0 C0.99 0 1.98 0 3 0 C3.04254356 1.99954746 3.04080783 4.00041636 3 6 C2.67 6.33 2.34 6.66 2 7 C1.76924918 8.34747084 1.58846937 9.70377565 1.4375 11.0625 C1.293125 12.361875 1.14875 13.66125 1 15 C0.67 15 0.34 15 0 15 C0 10.05 0 5.1 0 0 Z " fill="#898D90" transform="translate(225,172)"/>
<path d="M0 0 C1.98 0.66 3.96 1.32 6 2 C3.82575883 4.50037734 2.26954202 5.43628586 -1 6 C-1.625 4.125 -1.625 4.125 -2 2 C-1.34 1.34 -0.68 0.68 0 0 Z " fill="#9C9EA1" transform="translate(79,163)"/>
<path d="M0 0 C0.99 0.33 1.98 0.66 3 1 C4.32 1 5.64 1 7 1 C3.57653445 4.14958831 0.55737263 4.56179109 -4 5 C-3 2 -3 2 0 0 Z " fill="#B0B4B5" transform="translate(185,171)"/>
<path d="M0 0 C1.5625 1.8125 1.5625 1.8125 3 4 C2.67 4.99 2.34 5.98 2 7 C1.67 6.01 1.34 5.02 1 4 C0.05125 3.87625 -0.8975 3.7525 -1.875 3.625 C-5 3 -5 3 -7 1 C-3.535 0.505 -3.535 0.505 0 0 Z " fill="#A6A8AB" transform="translate(196,124)"/>
<path d="M0 0 C0.66 0.33 1.32 0.66 2 1 C-3.625 6 -3.625 6 -7 6 C-7.33 6.99 -7.66 7.98 -8 9 C-7.9375 6.75 -7.9375 6.75 -7 4 C-4.75412136 2.18298261 -2.67371119 1.21958756 0 0 Z " fill="#CCCFD0" transform="translate(68,165)"/>
<path d="M0 0 C4.12751449 0.60698743 7.3321148 2.03810791 11 4 C10.01 4.66 9.02 5.32 8 6 C7.34 5.67 6.68 5.34 6 5 C6 4.34 6 3.68 6 3 C5.01 3.33 4.02 3.66 3 4 C2.01 3.34 1.02 2.68 0 2 C0 1.34 0 0.68 0 0 Z " fill="#B8BFC0" transform="translate(214,163)"/>
<path d="M0 0 C0.66 0.33 1.32 0.66 2 1 C0.6875 3 0.6875 3 -1 5 C-1.99 5 -2.98 5 -4 5 C-4.33 5.66 -4.66 6.32 -5 7 C-5.66 6.67 -6.32 6.34 -7 6 C-7 5.34 -7 4.68 -7 4 C-1.7265625 0.77734375 -1.7265625 0.77734375 0 0 Z " fill="#D6D8D5" transform="translate(167,155)"/>
<path d="M0 0 C0.78375 0.185625 1.5675 0.37125 2.375 0.5625 C4.97089775 1.25962266 4.97089775 1.25962266 7 0 C7.66 0.33 8.32 0.66 9 1 C9.625 3.0625 9.625 3.0625 10 5 C6.08788267 3.84414715 3.1254959 2.64465038 0 0 Z " fill="#AEAEB2" transform="translate(130,240)"/>
<path d="M0 0 C3.375 0.25 3.375 0.25 7 1 C8.4375 3.0625 8.4375 3.0625 9 5 C5.22454612 3.90931332 2.52956528 3.0916909 0 0 Z " fill="#B1B2B5" transform="translate(83,214)"/>
<path d="M0 0 C1.65 0 3.3 0 5 0 C5.33 0.99 5.66 1.98 6 3 C6.66 3.33 7.32 3.66 8 4 C7.01 4.495 7.01 4.495 6 5 C3.98079663 3.69593116 1.98075027 2.36176581 0 1 C0 0.67 0 0.34 0 0 Z M6 0 C8 1 8 1 8 1 Z " fill="#D1D3D4" transform="translate(90,137)"/>
<path d="M0 0 C0.99 0.33 1.98 0.66 3 1 C0.1875 3.0625 0.1875 3.0625 -3 5 C-3.99 4.67 -4.98 4.34 -6 4 C-3.1875 1.9375 -3.1875 1.9375 0 0 Z " fill="#DEE0DE" transform="translate(195,138)"/>
<path d="" fill="#FFFFFF" transform="translate(0,0)"/>
<path d="" fill="#FFFFFF" transform="translate(0,0)"/>
<path d="" fill="#FFFFFF" transform="translate(0,0)"/>
<path d="" fill="#FFFFFF" transform="translate(0,0)"/>
<path d="" fill="#FFFFFF" transform="translate(0,0)"/>
<path d="" fill="#FFFFFF" transform="translate(0,0)"/>
<path d="" fill="#FFFFFF" transform="translate(0,0)"/>
<path d="" fill="#FFFFFF" transform="translate(0,0)"/>
<path d="" fill="#FFFFFF" transform="translate(0,0)"/>
<path d="" fill="#FFFFFF" transform="translate(0,0)"/>
<path d="" fill="#FFFFFF" transform="translate(0,0)"/>
<path d="" fill="#FFFFFF" transform="translate(0,0)"/>
<path d="" fill="#FFFFFF" transform="translate(0,0)"/>
<path d="" fill="#FFFFFF" transform="translate(0,0)"/>
<path d="" fill="#FFFFFF" transform="translate(0,0)"/>
<path d="" fill="#FFFFFF" transform="translate(0,0)"/>
<path d="" fill="#FFFFFF" transform="translate(0,0)"/>
<path d="" fill="#FFFFFF" transform="translate(0,0)"/>
<path d="" fill="#FFFFFF" transform="translate(0,0)"/>
<path d="" fill="#FFFFFF" transform="translate(0,0)"/>
<path d="" fill="#FFFFFF" transform="translate(0,0)"/>
<path d="" fill="#FFFFFF" transform="translate(0,0)"/>
</svg>
